<svg xmlns="http://www.w3.org/2000/svg">
<defs>
<font id="SVN-Aptima" horiz-adv-x="1028" >
  <font-face 
    font-family="SVN-Aptima"
    font-weight="400"
    font-stretch="normal"
    units-per-em="2048"
    panose-1="2 4 6 3 5 5 6 2 2 4"
    ascent="1638"
    descent="-410"
    x-height="963"
    cap-height="1397"
    bbox="-737 -541 4553 2262"
    underline-thickness="109"
    underline-position="-359"
    unicode-range="U+0020-2122"
  />
<missing-glyph horiz-adv-x="4653" 
d="M788 1681v510h343v-61h-274v-157h236v-61h-236v-231h-69zM1253 1865q0 -72 30 -106.5t76 -34.5t77 34.5t31 106.5q0 69 -31 104.5t-77 35.5t-76 -35.5t-30 -104.5zM1189 1865q0 104 56 151q45 42 114 42q37 0 68.5 -13t54.5 -37t36 -59t13 -79q0 -52 -12.5 -89t-35.5 -61
t-54.5 -35t-69.5 -11q-78 0 -124 48.5t-46 142.5zM1608 1681v369h58v-53q41 61 115 61q56 0 85 -27t37 -63q2 -10 3.5 -24.5t1.5 -36.5v-226h-64v223q0 54 -19.5 77.5t-57.5 23.5q-20 0 -37.5 -6t-30 -20t-20 -37.5t-7.5 -58.5v-202h-64zM2149 1679q-14 -2 -25.5 -3.5
t-21.5 -1.5q-27 5 -44 8t-27 13t-13.5 31t-3.5 62v214h-45v48h45v90l64 38v-128h63v-48h-63v-217q0 -18 1.5 -28t5.5 -15t10.5 -6t16.5 -1h29zM2444 1851q4 -56 40 -86t106 -30q62 0 94.5 23t32.5 61q0 24 -12 41t-44 31q-10 4 -33 10t-57 14t-59 16t-39 16q-40 18 -57 45.5
t-17 65.5q0 29 12.5 54.5t36 45t56.5 30.5t75 11q45 0 80.5 -11.5t60.5 -31.5t39 -47.5t16 -60.5l-69 -3q-11 93 -124 93q-62 0 -88 -22.5t-26 -54.5q0 -27 18 -45q11 -11 35 -19t66 -18q82 -16 112 -32q46 -18 66.5 -50t20.5 -72q0 -34 -14 -61.5t-39 -47.5t-60 -31
t-78 -11q-100 0 -157.5 45t-57.5 130zM3022 1681l-193 510h74l130 -372q8 -22 14 -42l12 -40q6 22 14 42l16 40l140 372h69l-202 -510h-74zM3356 1681v510h72l257 -398v398h69v-510h-74l-255 396v-396h-69zM128 1098q0 -70 29 -104t71 -34t71.5 33t29.5 99q0 78 -30.5 113.5
t-72.5 35.5t-70 -34.5t-28 -108.5zM327 917v45q-37 -53 -104 -53q-35 0 -64 14t-50 39t-33 60t-12 78q0 42 10.5 77.5t30.5 61.5t48.5 40.5t64.5 14.5q34 0 59.5 -14.5t43.5 -38.5v186h64v-510h-58zM725 917v53q-23 -29 -52 -45t-65 -16q-56 0 -85 25.5t-37 65.5

<glyph glyph-name=".notdef" horiz-adv-x="4653" 
d="M788 1681v510h343v-61h-274v-157h236v-61h-236v-231h-69zM1253 1865q0 -72 30 -106.5t76 -34.5t77 34.5t31 106.5q0 69 -31 104.5t-77 35.5t-76 -35.5t-30 -104.5zM1189 1865q0 104 56 151q45 42 114 42q37 0 68.5 -13t54.5 -37t36 -59t13 -79q0 -52 -12.5 -89t-35.5 -61
t-54.5 -35t-69.5 -11q-78 0 -124 48.5t-46 142.5zM1608 1681v369h58v-53q41 61 115 61q56 0 85 -27t37 -63q2 -10 3.5 -24.5t1.5 -36.5v-226h-64v223q0 54 -19.5 77.5t-57.5 23.5q-20 0 -37.5 -6t-30 -20t-20 -37.5t-7.5 -58.5v-202h-64zM2149 1679q-14 -2 -25.5 -3.5
t-21.5 -1.5q-27 5 -44 8t-27 13t-13.5 31t-3.5 62v214h-45v48h45v90l64 38v-128h63v-48h-63v-217q0 -18 1.5 -28t5.5 -15t10.5 -6t16.5 -1h29zM2444 1851q4 -56 40 -86t106 -30q62 0 94.5 23t32.5 61q0 24 -12 41t-44 31q-10 4 -33 10t-57 14t-59 16t-39 16q-40 18 -57 45.5
t-17 65.5q0 29 12.5 54.5t36 45t56.5 30.5t75 11q45 0 80.5 -11.5t60.5 -31.5t39 -47.5t16 -60.5l-69 -3q-11 93 -124 93q-62 0 -88 -22.5t-26 -54.5q0 -27 18 -45q11 -11 35 -19t66 -18q82 -16 112 -32q46 -18 66.5 -50t20.5 -72q0 -34 -14 -61.5t-39 -47.5t-60 -31
t-78 -11q-100 0 -157.5 45t-57.5 130zM3022 1681l-193 510h74l130 -372q8 -22 14 -42l12 -40q6 22 14 42l16 40l140 372h69l-202 -510h-74zM3356 1681v510h72l257 -398v398h69v-510h-74l-255 396v-396h-69zM128 1098q0 -70 29 -104t71 -34t71.5 33t29.5 99q0 78 -30.5 113.5
t-72.5 35.5t-70 -34.5t-28 -108.5zM327 917v45q-37 -53 -104 -53q-35 0 -64 14t-50 39t-33 60t-12 78q0 42 10.5 77.5t30.5 61.5t48.5 40.5t64.5 14.5q34 0 59.5 -14.5t43.5 -38.5v186h64v-510h-58zM725 917v53q-23 -29 -52 -45t-65 -16q-56 0 -85 25.5t-37 65.5
q-2 8 -2.5 21.5t-0.5 33.5v231h64v-207q0 -24 0.5 -40t2.5 -26q5 -24 23 -37.5t48 -13.5q46 0 72 28.5t26 96.5v199h64v-369h-58zM669 1360h-48l-79 99h82zM878 917v369h59v-53q40 61 114 61q56 0 85 -27t37 -63q2 -10 3.5 -24.5t1.5 -36.5v-226h-63v223q0 54 -19.5 77.5
t-57.5 23.5q-20 0 -37.5 -6t-30.5 -20t-20.5 -37.5t-7.5 -58.5v-202h-64zM1311 1106q0 -72 28 -104t70 -32t71.5 32t29.5 104q0 66 -29.5 100.5t-71.5 34.5t-70 -34.5t-28 -100.5zM1324 883q2 -16 6.5 -27.5t14.5 -17.5q20 -16 61 -16q42 0 65 15.5t31 45.5q5 22 5 79
q-22 -22 -46.5 -33.5t-54.5 -11.5q-39 0 -68.5 14.5t-49.5 40t-30.5 59t-10.5 72.5q0 40 11 74.5t31 60.5t49.5 41t67.5 15q62 0 107 -53v45h58v-318q1 -63 -9 -100t-31 -57.5t-52.5 -28.5t-74.5 -13q-64 0 -104.5 29t-38.5 93zM1921 1103q0 -69 16 -95q28 -48 80 -48
q21 0 39.5 8.5t32.5 26t22.5 43.5t8.5 62q0 72 -29 108t-69 36q-42 0 -71.5 -35.5t-29.5 -105.5zM1924 917h-61v510h63v-183q18 26 43.5 38t57.5 12q34 0 62.5 -14t49.5 -39t33 -59.5t12 -75.5q0 -48 -13 -85t-34.5 -61.5t-50.5 -37.5t-61 -13q-34 0 -58.5 13.5t-42.5 39.5
v-45zM2500 1103q-18 -8 -44 -13.5t-60 -10.5q-27 -5 -44 -10t-27 -12.5t-13.5 -17t-3.5 -23.5q0 -26 18.5 -42.5t56.5 -16.5q34 0 63 14.5t43 44.5q8 21 8 63zM2502 962q-34 -29 -65.5 -41t-69.5 -12q-62 0 -93.5 29t-31.5 75q0 44 26 69t62 37q10 2 24 4t31 4q76 12 112 24
q2 6 2.5 10t0.5 6q0 37 -19 53q-26 21 -72 21t-66.5 -15.5t-28.5 -53.5l-64 8q12 56 50.5 85t114.5 29q37 0 62 -6.5t41 -17.5t24.5 -26t12.5 -32q2 -10 4 -24t2 -34v-85q0 -43 0.5 -68.5t2 -41t5 -24.5t10.5 -18h-64q-6 11 -8.5 21t-4.5 24zM2407 1406q21 0 24 2
q17 4 21 13q0 10 -11 14q-16 8 -48 8q-6 0 -13.5 -0.5t-17.5 -2.5l-3 35q6 2 18 2h30q22 -2 39.5 -6t31.5 -10q27 -11 32 -37q0 -36 -64 -40v-18h-39v40zM2656 917v369h58v-53q41 61 115 61q56 0 85 -27t37 -63q2 -10 3.5 -24.5t1.5 -36.5v-226h-64v223q0 54 -19.5 77.5
t-57.5 23.5q-20 0 -37.5 -6t-30 -20t-20 -37.5t-7.5 -58.5v-202h-64zM3089 1106q0 -72 28 -104t70 -32t71 32t29 104q0 66 -29 100.5t-71 34.5t-70 -34.5t-28 -100.5zM3102 883q3 -34 21 -45q19 -16 61 -16t65 15.5t31 45.5q2 10 3.5 30t1.5 49q-22 -22 -46.5 -33.5
t-54.5 -11.5q-39 0 -68.5 14.5t-49.5 40t-30.5 59t-10.5 72.5q0 40 10.5 74.5t31 60.5t50 41t67.5 15q62 0 106 -53v45h59v-318q1 -63 -9.5 -100t-31.5 -57.5t-52.5 -28.5t-74.5 -13q-64 0 -104.5 29t-38.5 93zM3640 917v369h59v-53q18 26 45.5 43.5t65.5 17.5
q42 0 67.5 -17t36.5 -47q43 64 116 64q114 0 114 -125v-252h-63v231q0 51 -15.5 72t-51.5 21q-38 0 -64 -26.5t-26 -84.5v-213h-63v239q0 42 -15 63.5t-49 21.5q-44 0 -68.5 -30.5t-24.5 -102.5v-191h-64zM4473 1103q-17 -8 -43 -13.5t-60 -10.5q-27 -5 -44 -10t-27 -12.5
t-13.5 -17t-3.5 -23.5q0 -26 18.5 -42.5t56.5 -16.5q34 0 63 14.5t43 44.5q8 21 8 63zM4476 962q-34 -29 -65.5 -41t-69.5 -12q-62 0 -93.5 29t-31.5 75q0 44 26 69t62 37q10 2 23.5 4t31.5 4q76 12 112 24q2 6 2 10v6q0 38 -18 53q-26 21 -72 21t-66.5 -15.5t-28.5 -53.5
l-64 8q12 56 50.5 85t114.5 29q37 0 62 -6.5t41 -17.5t24.5 -26t12.5 -32q2 -10 3.5 -24t1.5 -34v-85q0 -43 0.5 -68.5t2 -41t5.5 -24.5t11 -18h-64q-6 11 -8.5 21t-4.5 24zM4288 1350q-2 32 17.5 53t51.5 21q10 0 25 -5.5t33 -15.5q21 -8 32 -8q10 0 17 7.5t9 21.5h46
q-4 -74 -69 -74q-11 0 -26 4t-33 12q-12 6 -20 9.5t-14 3.5q-29 0 -24 -29h-45zM1364 535h69v-294q0 -54 -10 -95.5t-33.5 -70t-61.5 -43t-94 -14.5q-55 0 -93 12.5t-61.5 39.5t-34 69t-10.5 102v294h69v-291q0 -47 6.5 -78t21.5 -50t39 -26.5t58 -7.5q36 0 61.5 7.5
t42 25.5t24 49.5t7.5 79.5v291zM1539 26v369h58v-53q20 29 48.5 45t66.5 16q55 0 84.5 -27.5t37.5 -63.5q2 -10 3.5 -24t1.5 -37v-225h-64v223q0 54 -19.5 77.5t-57.5 23.5q-20 0 -37.5 -6t-30 -20.5t-20 -38t-7.5 -57.5v-202h-64zM1934 26v369h64v-369h-64zM1934 464v71h64
v-71h-64zM2396 153q-10 -64 -53 -99.5t-101 -35.5q-78 0 -122.5 49t-44.5 139q0 94 44.5 145.5t120.5 51.5q62 0 98 -30.5t50 -86.5l-64 -8q-10 34 -31 54t-51 20q-48 0 -75.5 -34.5t-27.5 -108.5t27 -107.5t74 -33.5q77 0 92 93zM2489 209q0 -72 30 -106.5t76 -34.5
t77.5 34.5t31.5 106.5q0 70 -31.5 105.5t-77.5 35.5t-76 -35.5t-30 -105.5zM2425 209q0 103 56 151q47 43 114 43q37 0 68.5 -13t54.5 -37.5t36 -59.5t13 -79q0 -52 -12.5 -89t-35.5 -61t-54.5 -35t-69.5 -11q-78 0 -124 48.5t-46 142.5zM2884 206q0 -69 29.5 -103.5
t71.5 -34.5t71.5 33.5t29.5 99.5q0 78 -31 113.5t-73 35.5q-41 0 -69.5 -35t-28.5 -109zM3083 26v45q-37 -53 -103 -53q-35 0 -64 14t-50 39t-33 60t-12 78q0 42 10.5 77.5t30.5 61.5t48 40.5t64 14.5q35 0 60.5 -15t43.5 -38v185h64v-509h-59zM3497 244q-2 23 -9 41t-17 30
q-34 37 -80 37t-76.5 -30t-32.5 -78h215zM3558 137q-16 -58 -58 -88.5t-106 -30.5q-82 0 -130 49t-48 139q0 94 47 145.5t125 51.5q39 0 71 -13.5t54.5 -39t35 -61t12.5 -80.5q0 -2 -0.5 -6t-2.5 -10h-278q2 -62 34 -93.5t80 -31.5q38 0 62 17.5t38 59.5z" />
    <glyph glyph-name=".null" horiz-adv-x="0" 
 />
    <glyph glyph-name="nonmarkingreturn" horiz-adv-x="571" 
 />
    <glyph glyph-name="space" unicode=" " horiz-adv-x="590" 
 />
    <glyph glyph-name="exclam" unicode="!" horiz-adv-x="700" 
d="M438 1221l-73 -865h-41l-78 865l-4 61q0 57 21.5 100t76.5 43q45 0 68 -28q30 -39 30 -119v-57zM217 102q0 50 39 86.5t88 36.5t84 -36.5t35 -86.5q0 -53 -35 -90t-84 -37q-53 0 -90 37t-37 90z" />
    <glyph glyph-name="quotedbl" unicode="&#x22;" horiz-adv-x="700" 
d="M242 1262v-385q0 -82 -66 -82q-74 0 -74 82l4 41v344l-4 49q0 114 74 114q66 0 66 -110v-53zM578 1262v-381q0 -41 -15.5 -63.5t-54.5 -22.5q-74 0 -74 86l4 37v344l-4 45q0 118 74 118q70 0 70 -114v-49z" />
    <glyph glyph-name="numbersign" unicode="#" horiz-adv-x="1159" 
d="M1024 557v-115h-225l-62 -442h-119l62 442h-274l-66 -442h-119l66 442h-217v115h237l41 274h-225v115h242l65 414h119l-66 -414h275l61 414h119l-61 -414h196v-115h-213l-41 -274h205zM741 831h-274l-41 -274h274z" />
    <glyph glyph-name="dollar" unicode="$" horiz-adv-x="1159" 
d="M618 598v-524q93 22 149 94t56 176q0 125 -104 197q-72 41 -101 57zM537 823v471q-84 -18 -136.5 -79.5t-52.5 -149.5q0 -111 76 -178q35 -31 113 -64zM618 1298v-512q218 -98 230 -106q135 -92 135 -258q0 -176 -104 -293q-97 -109 -261 -141v-226l-40 5l-41 -5v213
q-164 0 -244 28t-137 83q12 43 24.5 89t12.5 87h20q66 -100 131 -145q80 -56 193 -56v574q-154 55 -222 106q-127 99 -127 258q0 160 101 261q90 90 248 116v156l41 -4l40 4v-152q101 0 177.5 -22.5t134.5 -71.5q-33 -72 -53 -160h-25q-37 84 -88 125q-59 47 -146 47z" />
    <glyph glyph-name="percent" unicode="%" horiz-adv-x="1835" 
d="M1315 1425l-762 -1495l-49 9l-45 -9l762 1495l45 -4zM750 1044q0 -139 -96.5 -243.5t-235.5 -104.5q-146 0 -235 95.5t-89 244.5q0 146 97.5 243t242.5 97q141 0 228.5 -95t87.5 -237zM1716 324q0 -97 -45 -174.5t-127 -129.5q-24 -16 -75.5 -30.5t-84.5 -14.5
q-147 0 -235 94.5t-88 241.5q0 148 96 246t244 98q141 0 228 -95t87 -236zM1208 291q0 -109 33 -174q45 -88 143 -88q101 0 150 108q35 78 35 195q0 114 -29 180q-41 94 -139 94q-111 0 -158 -108q-35 -80 -35 -207zM242 1008q0 -109 32 -172q45 -86 144 -86q98 0 147 108
q37 82 37 195q0 143 -51 213q-43 57 -117 57q-110 0 -158 -109q-34 -79 -34 -206z" />
    <glyph glyph-name="ampersand" unicode="&#x26;" horiz-adv-x="1487" 
d="M655 831q95 70 144 134q65 86 65 182q0 74 -45 123t-119 49q-86 0 -131 -53.5t-45 -139.5q0 -73 41 -155q23 -43 90 -140zM1094 291l258 -295q-52 4 -78.5 6t-48.5 2q-29 0 -46.5 -1t-68.5 -7q-47 70 -61 90q-25 33 -70 86q-86 -96 -199.5 -148.5t-242.5 -52.5
q-170 0 -280 93.5t-110 250.5q0 140 107 254q88 95 254 176l12 9q-76 114 -94 149q-45 88 -45 170q0 137 87 220t228 83q119 0 195 -57t76 -160q0 -115 -90 -217q-60 -68 -189 -151l254 -320l107 -123q63 86 129 197q49 82 116 205q13 -21 33.5 -42.5t44.5 -39.5
q-65 -101 -133 -193q-74 -102 -145 -184zM553 705l-16 -13q-105 -65 -156 -135q-66 -88 -66 -197q0 -127 86 -213t213 -86q82 0 168 41t156 111q-107 129 -195 242q-108 137 -190 250z" />
    <glyph glyph-name="quotesingle" unicode="'" horiz-adv-x="590" 
d="M352 1262v-385q0 -82 -65 -82q-74 0 -74 82l4 41v344l-4 49q0 114 74 114q65 0 65 -110v-53z" />
    <glyph glyph-name="parenleft" unicode="(" horiz-adv-x="590" 
d="M455 1532l41 -37q-131 -180 -189 -403q-49 -193 -49 -449q0 -104 14.5 -216t40 -212t70.5 -192q35 -72 113 -191l-41 -41q-176 205 -252 406.5t-76 474.5q0 502 328 860z" />
    <glyph glyph-name="parenright" unicode=")" horiz-adv-x="590" 
d="M119 -209l-41 41q69 109 113.5 198t69 186t37.5 202.5t13 224.5q0 256 -47 447q-55 225 -186 405l41 37q162 -176 242.5 -394t80.5 -466q0 -271 -73.5 -474.5t-249.5 -406.5z" />
    <glyph glyph-name="asterisk" unicode="*" horiz-adv-x="918" 
d="M168 1278l258 -184l-29 315l49 -4l70 8l-33 -323l258 192q27 -59 62 -106l-291 -132l287 -126q-17 -25 -30 -47.5t-28 -55.5l-258 184l33 -319l-70 4l-49 -4l29 311l-250 -180l-45 78l-12 20l287 135l-295 132q39 45 57 102z" />
    <glyph glyph-name="plus" unicode="+" horiz-adv-x="1245" 
d="M557 586v450h131v-450h451v-131h-451v-455h-131v455h-451v131h451z" />
    <glyph glyph-name="comma" unicode="," horiz-adv-x="590" 
d="M94 -332l144 459q20 59 30 74q27 41 64 41t61.5 -19.5t24.5 -54.5q0 -25 -7.5 -43.5t-37.5 -67.5l-242 -401z" />
    <glyph glyph-name="hyphen" unicode="-" horiz-adv-x="700" 
d="M86 389v127h512v-127h-512z" />
    <glyph glyph-name="period" unicode="." horiz-adv-x="590" 
d="M164 102q0 50 37 86.5t86 36.5t86 -36.5t37 -86.5q0 -51 -36 -89t-87 -38q-49 0 -86 37t-37 90z" />
    <glyph glyph-name="slash" unicode="/" horiz-adv-x="590" 
d="M623 1532l-586 -1741l-45 4l-62 -4l586 1741l53 -4z" />
    <glyph glyph-name="zero" unicode="0" horiz-adv-x="1159" 
d="M578 41q157 0 233 174q70 162 70 473q0 264 -68 428q-78 191 -223 191h-8q-187 0 -260 -164q-64 -142 -64 -459q0 -264 43 -403q74 -240 277 -240zM90 643q0 305 94 487q125 242 402 242q233 0 348 -172t115 -512q0 -332 -130.5 -522.5t-345.5 -190.5q-262 0 -380 193
q-103 166 -103 475z" />
    <glyph glyph-name="one" unicode="1" horiz-adv-x="1159" 
d="M496 -8v1241l-13 4l-229 -123q-21 49 -61 78q108 43 225 98.5t209 110.5l32 -8v-1401q-20 4 -38.5 6t-42.5 2q-21 0 -44.5 -3t-37.5 -5z" />
    <glyph glyph-name="two" unicode="2" horiz-adv-x="1159" 
d="M254 1077l-74 99q127 196 357 196q186 0 292 -84q117 -92 117 -276q0 -119 -63 -234q-49 -88 -150 -196l-241 -258l-127 -131l-33 -41l8 -21q78 0 315.5 12.5t315.5 12.5q-4 -21 -6 -39.5t-2 -38.5q0 -19 1 -32t7 -46h-881v33q88 80 168 168l123 127q147 149 186 196
q92 109 138 213q53 123 53 271q0 137 -53 209q-60 81 -189 81q-94 0 -162.5 -60t-87.5 -157z" />
    <glyph glyph-name="three" unicode="3" horiz-adv-x="1159" 
d="M250 1139l-49 110q35 39 100 74q94 49 199 49q155 0 262 -67q127 -80 127 -228q0 -119 -72 -213t-203 -143q146 0 243 -84t97 -231q0 -197 -150.5 -314t-369.5 -117q-82 0 -163 17.5t-148 52.5q10 25 15 55.5t9 67.5l13 8q53 -59 126.5 -97t151.5 -38q156 0 242 101.5
t86 258.5q0 136 -74 207.5t-209 71.5q-16 0 -56 -4t-42 -4l8 41q0 16 -8 41l78 -4q121 0 186 92q60 82 60 207q0 114 -57.5 186t-159.5 72q-74 0 -137.5 -45t-92.5 -119z" />
    <glyph glyph-name="four" unicode="4" horiz-adv-x="1159" 
d="M680 381h-635v29q119 176 219 319q125 180 219 311l230 320l65 -4l66 4v-860l188 8l-8 -70q0 -24 8 -65l-188 8v-389l-82 8q-23 0 -35 -1t-47 -7v389zM684 500v655l-12 8q-62 -82 -156 -215q-39 -53 -151 -219q-76 -111 -152 -221l8 -8h463z" />
    <glyph glyph-name="five" unicode="5" horiz-adv-x="1159" 
d="M254 692v672l12 8h660l8 -16l-9 -45t-7 -66l4 -41q-66 15 -135.5 24t-143.5 9h-303v-455q47 25 106.5 37t114.5 12q168 0 282.5 -110.5t114.5 -278.5q0 -188 -133 -321q-145 -146 -374 -146q-125 0 -220 31q-51 17 -108 51l29 136l16 4q45 -74 124 -113t171 -39
q143 0 229 115q78 104 78 266q0 149 -65 229q-74 90 -230 90q-72 0 -129 -24q-39 -16 -72 -45z" />
    <glyph glyph-name="six" unicode="6" horiz-adv-x="1159" 
d="M815 1364l25 -70q-49 13 -99 13q-223 0 -344 -240q-94 -188 -94 -436q117 184 332 184q186 0 291.5 -103.5t105.5 -277.5q0 -201 -123 -330t-323 -129q-244 0 -365 177q-102 149 -102 409q0 369 168 590t438 221q23 0 44.5 -1t45.5 -7zM594 737q-139 0 -215 -92t-76 -268
q0 -135 77 -235.5t206 -100.5q131 0 200 117q62 102 62 260q0 147 -69.5 233t-184.5 86z" />
    <glyph glyph-name="seven" unicode="7" horiz-adv-x="1159" 
d="M164 1372h876v-61q-71 -117 -223 -379q-160 -275 -266 -469q-148 -268 -248 -471l-70 8q-30 0 -45 -2q-18 -6 -24 -6v24q125 207 252 414q190 313 250 414q118 200 206 364l-8 9q-119 0 -352 -16.5t-348 -16.5l8 94q0 25 -3 51.5t-5 42.5z" />
    <glyph glyph-name="eight" unicode="8" horiz-adv-x="1159" 
d="M733 778v-16q131 -25 213 -113t82 -223q0 -205 -129 -328t-334 -123q-203 0 -321 101q-129 108 -129 309q0 129 86 233.5t213 135.5v16q-95 18 -164 102q-62 74 -62 177q0 151 121 241q111 82 269 82q86 0 150.5 -16.5t123.5 -61.5q111 -82 111 -225q0 -102 -64.5 -183
t-165.5 -108zM578 1307q-109 0 -172 -90q-27 -41 -38.5 -89.5t-11.5 -103.5q0 -47 18.5 -91t51.5 -85q29 -31 66.5 -44t85.5 -13q114 0 172 94q26 35 35.5 77t9.5 99q0 104 -57.5 175t-159.5 71zM578 725q-132 0 -211 -107q-72 -96 -72 -233q0 -147 65 -240
q74 -104 218 -104q135 0 208 117q62 98 62 239q0 142 -62 228q-71 100 -208 100z" />
    <glyph glyph-name="nine" unicode="9" horiz-adv-x="1159" 
d="M197 111l24 8q84 -78 197 -78q98 0 185 78t142 221q33 88 49.5 186.5t16.5 198.5q-109 -184 -332 -184q-168 0 -276.5 106.5t-108.5 286.5q0 201 125 319.5t334 118.5q225 0 342 -182q100 -156 100 -404q0 -352 -173 -581.5t-421 -229.5q-61 0 -105 9.5t-54 19.5
q-6 47 -45 107zM807 954v13q0 149 -69.5 244.5t-192.5 95.5q-139 0 -211 -115q-60 -96 -60 -246q0 -133 58 -219q67 -100 196 -100q125 0 202 99t77 228z" />
    <glyph glyph-name="colon" unicode=":" horiz-adv-x="590" 
d="M164 102q0 50 37 86.5t86 36.5t86 -36.5t37 -86.5q0 -51 -36 -89t-87 -38q-49 0 -86 37t-37 90zM164 840q0 51 36 87t87 36q49 0 86 -37t37 -86t-37 -86t-86 -37t-86 37t-37 86z" />
    <glyph glyph-name="semicolon" unicode=";" horiz-adv-x="590" 
d="M94 -332l144 459q20 59 30 74q27 41 64 41t61.5 -19.5t24.5 -54.5q0 -25 -7.5 -43.5t-37.5 -67.5l-242 -401zM201 840q0 51 35.5 87t87.5 36q49 0 85.5 -37t36.5 -86t-36.5 -86t-85.5 -37q-50 0 -86.5 37t-36.5 86z" />
    <glyph glyph-name="less" unicode="&#x3c;" horiz-adv-x="1245" 
d="M1143 115v-131l-1041 483v111l1041 479v-127l-877 -410z" />
    <glyph glyph-name="equal" unicode="=" horiz-adv-x="1245" 
d="M1139 786v-131h-1033v131h1033zM1139 389v-131h-1033v131h1033z" />
    <glyph glyph-name="greater" unicode="&#x3e;" horiz-adv-x="1245" 
d="M98 115l877 405l-877 410v127l1045 -479v-111l-1045 -483v131z" />
    <glyph glyph-name="question" unicode="?" horiz-adv-x="811" 
d="M545 881l-127 -144q-64 -69 -85.5 -110t-21.5 -82q0 -49 33 -86t82 -37q20 0 61 16l13 -8l-25 -57q-24 -8 -57 -8q-96 0 -162 61q-72 68 -72 180q0 72 33 133q27 49 86 109l123 131q66 65 88.5 112.5t22.5 92.5q0 76 -56.5 122t-136.5 46q-45 0 -95 -27t-77 -63l-12 102
q55 29 103 45t97 16q142 0 225 -71.5t83 -194.5q0 -86 -28 -145.5t-95 -132.5zM254 102q0 50 37 86.5t86 36.5t86 -36.5t37 -86.5q0 -51 -36 -89t-87 -38q-49 0 -86 37t-37 90z" />
    <glyph glyph-name="at" unicode="@" horiz-adv-x="1659" 
d="M561 528q0 -65 30 -108t97 -43q96 0 191 180q88 168 88 287q0 51 -27 87t-84 36q-123 0 -215 -164q-80 -144 -80 -275zM1016 934l24 94h181l-148 -536q-8 -33 -8 -50q0 -28 14.5 -46.5t42.5 -18.5q99 0 193 115q115 139 115 348q0 161 -125 303q-160 180 -433 180
q-282 0 -468.5 -176t-186.5 -451q0 -274 190.5 -448t477.5 -174q162 0 294 75.5t222 210.5h127q-96 -178 -273.5 -285.5t-382.5 -107.5q-319 0 -540 199q-230 207 -230 518q0 313 216.5 527t537.5 214q299 0 494 -176q186 -168 186 -405q0 -226 -154 -400
q-143 -161 -297 -161q-86 0 -133 49q-34 37 -43 98q-78 -74 -110 -94q-66 -41 -144 -41q-57 0 -105 21.5t-87 64.5q-43 43 -62.5 94t-19.5 115q0 170 134 314.5t308 144.5q72 0 119 -31t74 -84z" />
    <glyph glyph-name="A" unicode="A" horiz-adv-x="1376" 
d="M721 1425l614 -1433q-22 2 -51 5t-55 3q-31 0 -61.5 -3t-49.5 -5q-96 289 -213 557h-520q-86 -211 -131 -335t-74 -222q-28 6 -40.5 7t-33.5 1q-20 0 -40.5 -3t-32.5 -5l639 1433h49zM872 635l-225 524l-225 -524h450z" />
    <glyph glyph-name="B" unicode="B" horiz-adv-x="1270" 
d="M197 0v1397h401q233 0 344 -64.5t111 -218.5q0 -139 -95 -237q-86 -93 -229 -127q145 0 248 -70q129 -86 129 -250q0 -221 -184 -348q-68 -49 -155 -65.5t-202 -16.5h-368zM377 1319v-541l78 -4q69 0 135.5 11.5t126.5 37.5q160 70 160 246q0 139 -95 199q-82 51 -254 51
h-151zM377 705v-627h192q152 0 248 88t96 227q0 170 -118 246q-103 66 -303 66h-115z" />
    <glyph glyph-name="C" unicode="C" horiz-adv-x="1376" 
d="M1262 217l-9 -131q-94 -61 -209.5 -90t-244.5 -29q-336 0 -528.5 199t-192.5 539q0 335 223 532q213 188 551 188q231 0 438 -94q-12 -31 -23.5 -71.5t-17.5 -83.5l-16 -5q-57 74 -180 129q-105 48 -209 48q-271 0 -424 -195q-141 -178 -141 -457q0 -295 151.5 -471
t396.5 -176q111 0 230 45t205 123z" />
    <glyph glyph-name="D" unicode="D" horiz-adv-x="1618" 
d="M385 1315v-1221q35 0 123 -8t135 -8q100 0 185 15.5t159 49.5q156 78 230 240q65 143 65 346q0 324 -147.5 459t-491.5 135q-41 0 -143.5 -4t-114.5 -4zM205 0v1397h606q152 0 236 -19q122 -26 215 -104q110 -90 165.5 -226.5t55.5 -285.5q0 -205 -72 -361
q-61 -135 -186 -245q-90 -78 -221.5 -117t-397.5 -39h-401z" />
    <glyph glyph-name="E" unicode="E" horiz-adv-x="1290" 
d="M184 1397h910l-4 -62l4 -61q-39 8 -91.5 14t-93.5 6l-204 4h-340v-512h499q31 0 92.5 4.5t92.5 4.5q-9 -33 -9 -54l9 -57q-31 0 -92.5 6t-92.5 6h-499v-598l86 -4q118 0 221.5 3t245.5 9q55 0 106 6.5t82 10.5l-4 -62l4 -61h-922v1397z" />
    <glyph glyph-name="F" unicode="F" 
d="M184 -8v1405h725l-4 -62l4 -61q-39 8 -91 14t-93 6l-205 4h-155v-512h315q31 0 92.5 4.5t91.5 4.5q-8 -33 -8 -54l8 -57q-30 0 -91.5 6t-92.5 6h-315v-704q-25 4 -45.5 6t-45.5 2q-24 0 -49.5 -3t-40.5 -5z" />
    <glyph glyph-name="G" unicode="G" horiz-adv-x="1618" 
d="M1405 1151h-21q-84 96 -204.5 146.5t-257.5 50.5q-269 0 -429.5 -169t-160.5 -474q0 -310 156.5 -483t457.5 -173q86 0 169 17.5t151 52.5v524l90 -4l90 4v-577q-135 -48 -277.5 -73.5t-279.5 -25.5q-375 0 -574 207q-184 193 -184 522q0 351 227 545q215 184 572 184
q160 0 296 -30.5t228 -87.5q-14 -33 -26.5 -75t-22.5 -81z" />
    <glyph glyph-name="H" unicode="H" horiz-adv-x="1618" 
d="M1229 807v590q20 -4 40.5 -6t49.5 -2q35 0 56.5 4t33.5 4v-1405q-25 4 -45.5 6t-44.5 2q-25 0 -50.5 -3t-39.5 -5v708q-76 0 -248 4.5t-182 4.5q-74 0 -246 -4.5t-188 -4.5v-708q-25 4 -45.5 6t-45.5 2q-22 0 -36.5 -1t-53.5 -7v1405q37 -4 50.5 -6t39.5 -2q35 0 56.5 4
t34.5 4v-590q75 0 250.5 -4t183.5 -4q73 0 244 4t186 4z" />
    <glyph glyph-name="I" unicode="I" horiz-adv-x="590" 
d="M197 -8v1405q20 -4 40.5 -6t49.5 -2q35 0 56.5 4t33.5 4v-1405q-25 4 -45.5 6t-44.5 2q-25 0 -50.5 -3t-39.5 -5z" />
    <glyph glyph-name="J" unicode="J" horiz-adv-x="590" 
d="M406 1397v-1237q0 -193 -113 -318t-305 -125l-17 54q154 0 213 123q41 86 41 258v1245q37 -4 50.5 -6t39.5 -2q35 0 56.5 4t34.5 4z" />
    <glyph glyph-name="K" unicode="K" horiz-adv-x="1270" 
d="M1192 1397l-463 -447l-176 -176q250 -282 500 -565l164 -205v-12l-111 8q-31 0 -63.5 -3t-51.5 -5q-39 59 -69.5 101t-73.5 87l-447 525q-4 4 -9 5l-15 3l-8 -4v-717q-25 4 -45.5 6t-44.5 2q-25 0 -50.5 -3t-40.5 -5v1405q21 -4 41.5 -6t49.5 -2q34 0 55.5 4t34.5 4v-635
l8 -8q10 0 34.5 17t49 40t67.5 66l504 520q31 -4 43 -6t39 -2q19 0 41.5 3t36.5 5z" />
    <glyph glyph-name="L" unicode="L" 
d="M365 1397v-1299l69 -4q49 0 149.5 6t149.5 6q55 0 109.5 6.5t87.5 10.5q-4 -17 -6 -30t-2 -32q0 -24 4 -39.5t4 -21.5h-746v1397q21 -4 41.5 -6t48.5 -2q35 0 56.5 4t34.5 4z" />
    <glyph glyph-name="M" unicode="M" horiz-adv-x="1835" 
d="M1511 1397h41q43 -412 54 -502q18 -164 57 -477q29 -223 57 -426q-43 4 -61.5 6t-36.5 2q-43 0 -61 -2q-23 -6 -33 -6q-19 207 -37 414.5t-36.5 373.5t-33.5 273q-114 -205 -217 -396q-94 -174 -179 -343t-140 -298h-21l-114 234q-74 153 -131.5 265t-141.5 271
q-71 134 -141 267q-76 -682 -80 -719q-18 -203 -18 -342q-29 6 -41.5 7t-32.5 1q-19 0 -40.5 -3t-33.5 -5q43 274 112.5 762.5t84.5 642.5h53q82 -164 174 -342q104 -201 195 -365q110 -201 213 -366q120 217 192 350q96 178 190.5 351t206.5 372z" />
    <glyph glyph-name="N" unicode="N" horiz-adv-x="1618" 
d="M1393 1397v-1405h-62q-35 55 -106 127l-885 979h-21v-1106q-24 4 -34.5 6t-22.5 2q-14 0 -30.5 -3t-26.5 -5v1405h82l970 -1057h21v1057q25 -4 35 -6t22 -2q15 0 31 3t27 5z" />
    <glyph glyph-name="O" unicode="O" horiz-adv-x="1376" 
d="M1155 709q0 147 -22.5 249.5t-87 199.5t-158.5 149.5t-199 52.5q-227 0 -357 -187.5t-130 -500.5q0 -301 137 -473q129 -162 334 -162q235 0 372 233q111 187 111 406v33zM664 -33q-285 0 -460 200t-175 529q0 330 181 529.5t458 199.5q272 0 452 -165q207 -191 207 -535
q0 -340 -184.5 -549t-478.5 -209z" />
    <glyph glyph-name="P" unicode="P" horiz-adv-x="1159" 
d="M344 639v-647q-25 4 -45 6t-45 2t-50.5 -3t-39.5 -5v1405h364q297 0 413 -75t116 -261q0 -182 -105.5 -277.5t-333.5 -140.5q-34 -4 -74 -8t-44 -4q-35 0 -90.5 4t-65.5 4zM344 1315v-598l90 -4l111 4q151 14 237 104t86 228q0 110 -53 178q-59 76 -176 88l-135 4z" />
    <glyph glyph-name="Q" unicode="Q" horiz-adv-x="1724" 
d="M844 1425q338 0 551 -178q227 -190 227 -518q0 -287 -164 -479q-139 -162 -377 -242q230 -174 459 -348q-41 -18 -83 -38.5t-77 -47.5q-14 27 -176 168q-170 149 -286 233q-33 -8 -50 -8q-350 0 -561 189q-221 196 -221 540q0 318 218 523.5t540 205.5zM1421 709
q0 145 -26.5 248.5t-103.5 201.5t-188.5 149.5t-238.5 51.5q-284 0 -438 -209q-139 -188 -139 -479q0 -314 170 -484q151 -151 391 -151q309 0 465 272q108 191 108 400z" />
    <glyph glyph-name="R" unicode="R" horiz-adv-x="1270" 
d="M365 1319v-561q2 0 36.5 -4t65.5 -4q43 0 68.5 3t95.5 13q117 27 189.5 102.5t72.5 192.5q0 221 -225 258q-19 2 -36.5 3t-47.5 1h-31zM184 -8v1405h434q236 0 345.5 -77t109.5 -235q0 -165 -131 -270q-108 -86 -287 -119l422 -536l99 -115l36 -53q-30 4 -56 6t-62 2
q-29 0 -46.5 -1t-68.5 -7q-33 47 -82 114q-33 46 -49 66l-242 315l-164 193h-77v-688q-25 4 -45.5 6t-45.5 2q-22 0 -36.5 -1t-53.5 -7z" />
    <glyph glyph-name="S" unicode="S" 
d="M131 270h21q67 -108 135 -155q82 -58 196 -58q125 0 206 87t81 212q0 158 -166 242q-155 68 -309 137q-168 103 -168 297q0 191 135 297q123 96 320 96q80 0 159.5 -24.5t135.5 -73.5q-13 -29 -30.5 -79t-27.5 -89h-20q-31 84 -97.5 132t-156.5 48q-107 0 -182.5 -67.5
t-75.5 -173.5q0 -156 168 -242q155 -70 311 -137q168 -98 168 -281q0 -215 -150 -346q-141 -125 -358 -125q-84 0 -182.5 33t-149.5 90q12 33 20.5 78t16.5 102z" />
    <glyph glyph-name="T" unicode="T" horiz-adv-x="1159" 
d="M672 1298v-1310q-25 4 -45.5 6t-44.5 2q-25 0 -50.5 -3t-39.5 -5v1310q-160 0 -226.5 -4t-224.5 -20q2 14 5 28.5t3 32.5q0 15 -3 32t-5 30h1057l-4 -62l4 -61q-78 10 -190.5 17t-235.5 7z" />
    <glyph glyph-name="U" unicode="U" horiz-adv-x="1376" 
d="M250 1397v-787q0 -284 94 -407q105 -137 361 -137q231 0 342 157q100 142 100 408v766q33 -8 57 -8l58 8v-815q0 -297 -161 -456t-437 -159q-152 0 -258.5 36t-190.5 113t-119 212q-26 102 -26 250v819q36 -4 49.5 -6t40.5 -2q35 0 56.5 4t33.5 4z" />
    <glyph glyph-name="V" unicode="V" horiz-adv-x="1376" 
d="M848 467l213 553l123 344l16 33q19 -4 35 -6t39 -2q18 0 39.5 3t34.5 5q-25 -47 -166.5 -374t-251.5 -593q-142 -340 -172 -438l-41 8q-12 0 -24.5 -3t-20.5 -5q-90 188 -244 538q-115 265 -224.5 522t-154.5 345q25 -4 47.5 -6t50.5 -2q25 0 54.5 3t48.5 5l74 -201
l139 -356l250 -623h20q58 125 115 250z" />
    <glyph glyph-name="W" unicode="W" horiz-adv-x="2052" 
d="M393 266l-368 1131q24 -4 46.5 -6t51.5 -2l94 8l62 -217l118 -418l172 -541h21q63 182 149 432q103 295 152 445q78 233 96 299q33 -8 57 -8q15 0 31.5 3t26.5 5l389 -1176h20q21 58 43 117q17 47 39 117l238 774l49 168q18 -4 34.5 -6t39.5 -2l69 8q-18 -43 -63 -160
q-29 -76 -39 -102l-389 -1143q-19 4 -34 6t-36 2q-24 0 -65 -8l-373 1151h-16l-398 -1151q-18 4 -32.5 6t-32.5 2q-31 0 -45 -2q-19 -6 -25 -6z" />
    <glyph glyph-name="X" unicode="X" horiz-adv-x="1270" 
d="M324 356l225 344l-234 385l-204 312q28 -4 52.5 -6t57.5 -2q27 0 58.5 3l52.5 5l106 -176l217 -373q172 274 344 549q19 -4 35.5 -6t38.5 -2q19 0 41.5 3t36.5 5l-37 -41l-311 -438l-103 -152l476 -774q-29 4 -54.5 6t-56.5 2t-63.5 -3t-51.5 -5q-166 334 -352 626
q-98 -145 -192 -305q-82 -137 -181 -321q-18 4 -34.5 6t-38.5 2q-21 0 -43.5 -3t-34.5 -5z" />
    <glyph glyph-name="Y" unicode="Y" horiz-adv-x="1376" 
d="M786 623v-631q-24 4 -44.5 6t-45.5 2q-24 0 -49.5 -3t-40.5 -5v594l-504 811q50 -4 72.5 -6t42.5 -2q27 0 60.5 3t54.5 5q57 -117 196.5 -361.5t192.5 -326.5q47 53 199 331q100 183 190 357q31 -4 43 -6t39 -2q18 0 40.5 3l37.5 5q-80 -105 -144 -205l-225 -365
q-31 -43 -63.5 -102t-51.5 -102z" />
    <glyph glyph-name="Z" unicode="Z" horiz-adv-x="1270" 
d="M37 45l594 832q49 71 147.5 212.5t143.5 213.5l-234 4q-117 0 -227 -9q-332 -24 -342 -24q2 14 5 28.5t3 32.5q0 15 -3 32t-5 30h1077v-41q-113 -148 -278 -373q-156 -211 -304 -426q-184 -268 -311 -463l311 -4q99 0 297.5 16.5t276.5 16.5l-4 -62l4 -61h-1151v45z" />
    <glyph glyph-name="bracketleft" unicode="[" horiz-adv-x="700" 
d="M279 -238v1770h319v-57h-197v-1655h197v-58h-319z" />
    <glyph glyph-name="backslash" unicode="\" 
d="M197 1532l761 -1532q-14 2 -36.5 3t-32.5 1q-41 0 -58 -4l-761 1532l61 -4z" />
    <glyph glyph-name="bracketright" unicode="]" horiz-adv-x="700" 
d="M406 1532v-1770h-320v58h197v1655h-197v57h320z" />
    <glyph glyph-name="asciicircum" unicode="^" horiz-adv-x="1245" 
d="M250 565h-144l447 832h135l447 -832h-144l-368 668z" />
    <glyph glyph-name="underscore" unicode="_" 
d="M1024 -328h-1024v78h1024v-78z" />
    <glyph glyph-name="grave" unicode="`" horiz-adv-x="700" 
d="M492 1090h-70l-324 200q-24 23 -49 45l-8 33l4 25q14 41 66 41h20q12 -7 25 -13q20 -14 42.5 -37.5t34.5 -35.5z" />
    <glyph glyph-name="a" unicode="a" 
d="M848 643v-475l-4 -29q0 -41 10 -59.5t43 -18.5l66 13v-45q-27 -15 -62 -21l-74 -8q-59 0 -95 28.5t-44 98.5l-16 -21q-131 -131 -303 -131q-115 0 -195 71t-80 183q0 121 71 187.5t310 107.5q105 17 137 27q80 27 80 108q0 115 -61.5 178.5t-179.5 63.5q-101 0 -172 -53
q-58 -41 -70 -90h-25v114q80 56 160 85.5t172 29.5q332 0 332 -344zM684 205v299l-74 -12q-182 -37 -225 -58q-123 -55 -123 -176q0 -96 52.5 -144t148.5 -48q43 0 89 22.5t75 54.5q16 13 36.5 33.5t20.5 28.5z" />
    <glyph glyph-name="b" unicode="b" horiz-adv-x="1159" 
d="M135 0v1532l82 -4l82 4v-758q70 103 147 154q91 59 205 59q203 0 316 -151q98 -134 98 -324q0 -217 -121 -371q-131 -166 -342 -166q-110 0 -194 54q-56 34 -97 94q-28 -21 -69 -60q-60 -55 -70 -63h-37zM602 901q-162 0 -242 -149q-65 -123 -65 -334q0 -168 77 -270.5
t210 -102.5q155 0 237 156q66 125 66 303q0 176 -66 280q-74 117 -217 117z" />
    <glyph glyph-name="c" unicode="c" 
d="M938 901l-45 -135h-16q-3 2 -20 26.5t-38 43.5q-33 38 -88 60t-113 22q-167 0 -264 -130q-88 -118 -88 -292q0 -199 101.5 -323t271.5 -124q86 0 154 35q51 27 129 96l12 -4l-12 -94q-68 -53 -147 -80t-165 -27q-250 0 -391 148q-133 139 -133 364q0 234 146.5 367
t381.5 133q97 0 171.5 -18.5t152.5 -67.5z" />
    <glyph glyph-name="d" unicode="d" horiz-adv-x="1159" 
d="M999 1532v-1540l-81 8q-23 0 -35.5 -1t-46.5 -7v201q-131 -218 -353 -218q-184 0 -293 123q-116 131 -116 377q0 219 119.5 365.5t318.5 146.5q106 0 185 -51t139 -150v746l82 -4zM836 512q0 154 -60 258q-76 131 -219 131q-178 0 -250 -147q-53 -109 -53 -308
q0 -155 59 -262q74 -131 219 -131q160 0 240 158q64 125 64 301z" />
    <glyph glyph-name="e" unicode="e" 
d="M909 205l-4 -107q-80 -57 -169 -90t-183 -33q-217 0 -350 135.5t-133 372.5q0 222 118 359q127 145 353 145q172 0 286 -113q127 -124 127 -346v-45q-71 0 -238 4.5t-175 4.5h-291l-4 -41q0 -164 95 -274.5t265 -110.5q92 0 182 49q58 30 121 90zM250 565h545
q0 156 -52 246q-63 111 -202 111q-135 0 -217 -113q-74 -102 -74 -244z" />
    <glyph glyph-name="f" unicode="f" horiz-adv-x="590" 
d="M180 -8v905h-139v78h139l4 16q27 209 109 350q108 191 285 191h40q-4 -21 -8 -66t-4 -98l-8 -8l-41 20q-37 13 -74 13q-92 0 -132 -60.5t-40 -156.5q0 -54 13 -123q12 -54 16 -78h209l-4 -41l4 -37h-205v-905q-20 4 -38.5 6t-43.5 2q-20 0 -43.5 -3t-38.5 -5z" />
    <glyph glyph-name="g" unicode="g" 
d="M516 12q-315 0 -315 -245q0 -121 79.5 -183.5t215.5 -62.5q131 0 217 57q106 70 106 205q0 143 -92 194q-63 35 -211 35zM950 979v-78l-225 21q68 -52 105.5 -119.5t37.5 -151.5q0 -159 -129 -243q-116 -76 -309 -76h-37q-43 0 -69 -17q-41 -24 -41 -82q0 -61 45 -79.5
t151 -18.5h131q357 0 357 -274q0 -178 -144.5 -290t-376.5 -112q-145 0 -249 70q-123 82 -123 229q0 107 56 168.5t157 81.5v17q-54 12 -82 41q-41 43 -41 127q0 67 39 110q28 31 100 66q-98 45 -143 108q-54 74 -54 182q0 152 89 236q98 92 297 92h28l283 -12l57 -4
q23 0 49.5 3t40.5 5zM262 664l-4 -21q0 -106 61.5 -182t163.5 -76q109 0 169.5 77t60.5 189q0 129 -49 199q-56 80 -172 80q-109 0 -169.5 -73t-60.5 -193z" />
    <glyph glyph-name="h" unicode="h" horiz-adv-x="1159" 
d="M160 -8v1540l82 -4l82 4v-746q53 97 137 149t190 52q174 0 253 -100.5t79 -300.5v-594l-82 8q-22 0 -34.5 -1t-47.5 -7v549q0 178 -47 254q-53 86 -182 86q-137 0 -201.5 -82t-64.5 -246v-561l-82 8q-23 0 -35 -1t-47 -7z" />
    <glyph glyph-name="i" unicode="i" horiz-adv-x="590" 
d="M369 975v-983l-82 8q-23 0 -35 -1t-47 -7v983q31 -4 43 -6t39 -2zM389 1323q0 -41 -30.5 -71.5t-71.5 -30.5q-43 0 -75 29.5t-32 72.5t32 75t75 32q41 0 71.5 -31t30.5 -76z" />
    <glyph glyph-name="j" unicode="j" horiz-adv-x="590" 
d="M217 -8v983q31 -4 43 -6t39 -2l82 8v-991q0 -148 -21 -234q-28 -123 -110 -201q-47 -41 -104.5 -65.5t-116.5 -24.5h-13l-16 66l20 -4h21q41 0 73.5 35.5t53.5 91.5q29 69 39 153t10 191zM401 1323q0 -41 -30.5 -71.5t-71.5 -30.5q-43 0 -74.5 29.5t-31.5 72.5t31.5 75
t74.5 32q41 0 71.5 -31t30.5 -76z" />
    <glyph glyph-name="k" unicode="k" 
d="M328 1532v-918l-4 -41q0 -18 12 -24l12 -4q31 0 92 53q37 35 76 70l127 131l160 176q31 -4 43 -6t39 -2q18 0 40.5 3l37.5 5v-17q-142 -118 -243.5 -206t-207.5 -187q35 -39 154 -180q16 -18 163 -190q107 -123 166 -191v-12q-37 6 -55 7t-47 1q-27 0 -56.5 -3t-45.5 -5
q-68 90 -183 225q-90 107 -207 238q-26 32 -49 32q-24 0 -24 -73v-422l-82 8q-23 0 -35 -1t-47 -7v1540l82 -4z" />
    <glyph glyph-name="l" unicode="l" horiz-adv-x="590" 
d="M205 -8v1540l82 -4l82 4v-1540l-82 8q-23 0 -35 -1t-47 -7z" />
    <glyph glyph-name="m" unicode="m" horiz-adv-x="1724" 
d="M147 -8v983q31 -4 43.5 -6t38.5 -2l82 8v-176q54 92 121 137q78 51 182 51q101 0 184 -54t115 -151q62 103 138.5 154t181.5 51q180 0 260 -104q72 -95 72 -297v-594l-82 8q-23 0 -35 -1t-47 -7v549q0 161 -39 237q-53 103 -191 103q-137 0 -192 -111q-41 -80 -41 -221
v-557l-82 8q-22 0 -34.5 -1t-47.5 -7v602q0 287 -217 287q-145 0 -203 -88q-43 -66 -43 -203v-598l-82 8q-22 0 -34.5 -1t-47.5 -7z" />
    <glyph glyph-name="n" unicode="n" horiz-adv-x="1159" 
d="M160 -8v983q30 -4 42.5 -6t39.5 -2l82 8v-189q53 97 137 149t190 52q176 0 254 -98t78 -303v-594l-82 8q-22 0 -34.5 -1t-47.5 -7v549q0 164 -41 239q-53 101 -188 101q-152 0 -213 -111q-53 -94 -53 -299v-479l-82 8q-23 0 -35 -1t-47 -7z" />
    <glyph glyph-name="o" unicode="o" 
d="M66 492q0 219 132 357t334 138q193 0 312 -137t119 -363q0 -211 -117 -354q-129 -158 -346 -158q-185 0 -307 127q-132 136 -132 344zM528 922q-157 0 -237 -148q-66 -121 -66 -311q0 -174 66 -287q78 -135 225 -135q143 0 221 166q62 131 62 289q0 168 -56 280
q-71 146 -215 146z" />
    <glyph glyph-name="p" unicode="p" horiz-adv-x="1159" 
d="M299 459q0 -176 72 -279q80 -114 231 -114q143 0 215 131q64 116 64 311q0 178 -58 280q-71 130 -225 130q-160 0 -238 -158q-61 -125 -61 -301zM299 -532q-20 4 -38.5 6t-43.5 2q-20 0 -43.5 -3t-38.5 -5v1507q21 -4 39.5 -6t42.5 -2q21 0 44.5 3t37.5 5v-209
q61 102 96 135q97 86 256 86q189 0 303 -143q107 -133 107 -328q0 -248 -122 -394.5t-321 -146.5q-108 0 -184 50.5t-131 150.5z" />
    <glyph glyph-name="q" unicode="q" horiz-adv-x="1159" 
d="M836 459q0 190 -74 317q-82 142 -225 142q-152 0 -222 -117q-61 -103 -61 -289q0 -190 57 -299q78 -147 250 -147q129 0 205 120q70 111 70 273zM836 975q30 -4 42.5 -6t39.5 -2l81 8v-1507l-81 8q-23 0 -35.5 -1t-46.5 -7v704q-105 -197 -320 -197q-207 0 -330 154
q-112 141 -112 354q0 222 107.5 363t301.5 141q144 0 246 -86q70 -59 102 -139z" />
    <glyph glyph-name="r" unicode="r" horiz-adv-x="700" 
d="M164 -8v983q31 -4 43 -6t39 -2l82 8v-205l8 25q57 86 117 135q71 57 141 57q35 0 65 -12l-28 -172q-49 16 -99 33q-81 0 -131 -50q-47 -57 -60 -110t-13 -152v-532l-82 8q-23 0 -35 -1t-47 -7z" />
    <glyph glyph-name="s" unicode="s" horiz-adv-x="811" 
d="M131 193h16q41 -64 103.5 -108t130.5 -44q82 0 141.5 52t59.5 136q0 125 -242 195t-242 260q0 143 95.5 223t240.5 80q72 0 141 -18q50 -13 89 -35q-31 -74 -50 -148h-16q-23 56 -71 96t-105 40q-82 0 -133 -43t-51 -125q0 -123 241.5 -201t241.5 -250q0 -153 -121 -246
q-108 -82 -256 -82q-143 0 -258 70q16 49 25 74q16 49 20 74z" />
    <glyph glyph-name="t" unicode="t" horiz-adv-x="590" 
d="M147 1176l164 65v-266h217l-4 -45l4 -33h-217v-516l-4 -70q0 -151 43 -211q37 -51 113 -51q26 0 52 6t42 11v-50q-41 -16 -88 -28.5t-84 -12.5q-121 0 -176 60q-66 69 -66 231l4 33v598h-127q5 12 5 37q0 29 -5 41h127v201z" />
    <glyph glyph-name="u" unicode="u" 
d="M909 975v-983l-82 8q-22 0 -34.5 -1t-47.5 -7v180q-102 -197 -327 -197q-170 0 -253 95.5t-83 302.5v602q31 -4 43 -6t39 -2l82 8v-553q0 -172 55 -258t191 -86q141 0 204 110q49 84 49 222v565q31 -4 43.5 -6t38.5 -2z" />
    <glyph glyph-name="v" unicode="v" 
d="M692 532l164 443q14 -4 28.5 -6t37.5 -2q16 0 65 8q-47 -101 -133 -291q-76 -170 -154 -356q-92 -224 -131 -336l-61 8q-25 0 -66 -8q-61 174 -178 462.5t-223 520.5q57 -8 94 -8q19 0 45.5 3t44.5 5q43 -144 126 -360t177 -431q2 4 20.5 29t20.5 29z" />
    <glyph glyph-name="w" unicode="w" horiz-adv-x="1618" 
d="M1561 975q-52 -107 -109 -234q-86 -190 -154 -358q-90 -223 -147 -391l-57 8l-54 -8q-43 160 -116.5 375t-137.5 370q-51 -102 -128.5 -307t-149.5 -438l-53 8q-15 0 -31 -3t-27 -5q-94 293 -181 529.5t-179 453.5q20 -4 40.5 -6t49.5 -2q18 0 45 3l45 5
q62 -217 120 -394.5t138 -367.5q57 121 149.5 368.5t137.5 393.5l53 -8l53 8q43 -172 117 -385t145 -377q78 178 170 410q101 249 134 352q14 -4 28.5 -6t36.5 -2q14 0 31.5 3t30.5 5z" />
    <glyph glyph-name="x" unicode="x" 
d="M434 479l-373 496q25 -4 47.5 -6t55.5 -2q43 0 67.5 4t38.5 4q43 -80 125 -199q76 -110 137 -182l115 147l172 234q17 -4 33 -6t37 -2q16 0 37.5 3t36.5 5q-82 -88 -191 -213q-115 -133 -190 -230l381 -516v-24l-95 8q-24 0 -53 -3t-45 -5q-49 84 -127 200.5t-160 225.5
q-75 -99 -145 -199q-96 -137 -150 -227q-24 6 -34.5 7t-26.5 1q-18 0 -34.5 -3t-26.5 -5v24z" />
    <glyph glyph-name="y" unicode="y" 
d="M467 4l-414 971q25 -4 47.5 -6t51.5 -2q22 0 50.5 3l47.5 5q61 -193 131 -370t172 -392q65 135 156.5 363.5t150.5 398.5q17 -4 33 -6t37 -2q16 0 65 8q-211 -469 -233 -518q-164 -361 -221 -494q-125 -285 -209 -495q-19 4 -34 6t-36 2q-29 0 -43 -2q-18 -6 -26 -6z" />
    <glyph glyph-name="z" unicode="z" 
d="M934 946l-635 -864h47q105 0 213 6q324 18 363 18l-9 -53l9 -53h-877v20q92 113 227 289q117 154 238 316q113 153 190 260h-41q-94 0 -190 -6q-287 -19 -317 -19l4 49l-4 54h782v-17z" />
    <glyph glyph-name="braceleft" unicode="{" horiz-adv-x="700" 
d="M422 360v-340q0 -112 39 -175.5t133 -82.5h-41q-156 0 -217.5 66t-61.5 242v336q0 110 -28.5 161t-126.5 80q92 27 123.5 78t31.5 156v364q0 168 74 232q66 55 217 55h29q-98 -25 -135 -83t-37 -175v-361q0 -120 -29 -174q-35 -65 -135 -92q102 -29 137 -100
q27 -55 27 -187z" />
    <glyph glyph-name="bar" unicode="|" horiz-adv-x="700" 
d="M274 0v1532h132v-1532h-132z" />
    <glyph glyph-name="braceright" unicode="}" horiz-adv-x="700" 
d="M262 16v344q0 129 27 185q35 71 137 98q-98 27 -131 88.5t-33 181.5v361q0 112 -37 172.5t-135 85.5q168 0 236 -51q84 -64 84 -236v-364q0 -105 30.5 -158t124.5 -80q-96 -27 -125.5 -76t-29.5 -161v-336q0 -176 -63.5 -242t-219.5 -66h-37q94 19 133 81.5t39 172.5z
" />
    <glyph glyph-name="asciitilde" unicode="~" horiz-adv-x="1245" 
d="M1065 696l74 -82q-52 -96 -115 -153q-82 -72 -176 -72q-39 0 -100 21q-25 8 -175 69q-55 23 -88 35q-53 18 -92 18q-71 0 -131 -61q-33 -35 -86 -127l-70 82q76 141 143.5 189.5t147.5 48.5q74 0 238 -72t217 -72q66 0 127 58q53 49 86 118z" />
    <glyph glyph-name="sterling" unicode="&#xa3;" horiz-adv-x="1159" 
d="M1044 0h-950q2 16 5 32.5t3 37.5q0 16 -8 65l29 -4q158 0 225 96q58 82 58 256q0 33 -6.5 98.5t-6.5 98.5q-35 0 -102.5 -4t-102.5 -4v90q45 -4 87 -8t53 -4l53 4q-12 73 -12 147q0 238 104.5 367t304.5 129q96 0 176 -37q27 -14 52 -31q36 -26 38 -43l-86 -102l-8 28
q-22 48 -67 79.5t-97 31.5q-135 0 -196.5 -87t-61.5 -237l4 -36l9 -115l8 -98q127 0 183 3t124 13v-90q-51 0 -169 4t-138 4q2 -20 3 -46t1 -48q0 -129 -51 -252t-146 -203h66l434 17l188 8q-4 -21 -6 -39.5t-2 -38.5q0 -21 3 -44.5t5 -37.5z" />
    <glyph glyph-name="yen" unicode="&#xa5;" horiz-adv-x="1159" 
d="M332 877l-303 528l106 -4l107 4q51 -115 182 -368t178 -328q35 45 128 222t237 474l73 -4l74 4q-16 -23 -70.5 -110t-64.5 -103l-180 -315h209v-103h-267q-28 -53 -43 -80q-22 -43 -34 -71v-74h344v-98h-344v-459q-23 4 -42.5 6t-43.5 2q-23 0 -35.5 -1t-46.5 -7v459
h-377v98h377v37l-111 188h-266v103h213z" />
    <glyph glyph-name="dieresis" unicode="&#xa8;" horiz-adv-x="1024" 
 />
    <glyph glyph-name="copyright" unicode="&#xa9;" horiz-adv-x="1552" 
d="M766 -33q-301 0 -513 214t-212 515t212 515t513 214q305 0 519 -212t214 -517q0 -301 -214 -515t-519 -214zM766 74q254 0 436 184t182 438q0 256 -181 441.5t-437 185.5q-252 0 -431 -185.5t-179 -441.5q0 -254 180 -438t430 -184zM1053 434l-13 -78
q-55 -34 -124.5 -49.5t-145.5 -15.5q-199 0 -314.5 109.5t-115.5 299.5q0 189 130 297.5t329 108.5q65 0 132.5 -14.5t129.5 -38.5q-8 -21 -14.5 -48.5t-10.5 -46.5h-8q-22 35 -97 60.5t-136 25.5q-144 0 -230 -98t-86 -250q0 -159 88 -251.5t219 -92.5q84 0 168 33
q33 12 99 49z" />
    <glyph glyph-name="registered" unicode="&#xae;" horiz-adv-x="1552" 
d="M770 -33q-301 0 -515 214t-214 519q0 301 214 513t515 212t513 -212t212 -513q0 -305 -212 -519t-513 -214zM770 74q254 0 434 184t180 442q0 254 -180 438.5t-434 184.5q-252 0 -435 -185.5t-183 -437.5q0 -256 183 -441t435 -185zM606 688v-381l-53 8l-53 -8v783h258
q270 0 270 -172q0 -95 -78 -152q-63 -47 -172 -66l254 -299l58 -65l20 -29q-18 2 -33.5 5t-36.5 3l-69 -8l-74 103l-147 172l-95 106h-49zM606 1028v-278h135q82 0 131.5 43t49.5 108q0 127 -136 127h-180z" />
    <glyph glyph-name="degree" unicode="&#xb0;" horiz-adv-x="82" 
d="M-528 1153q65 0 109 48t44 114q0 65 -44 111.5t-109 46.5q-64 0 -109 -47.5t-45 -110.5q0 -66 44 -114t110 -48zM-528 1102q-90 0 -149.5 61.5t-59.5 151.5t59.5 149.5t149.5 59.5q88 0 149.5 -59.5t61.5 -149.5t-61.5 -151.5t-149.5 -61.5z" />
    <glyph glyph-name="plusminus" unicode="&#xb1;" horiz-adv-x="1245" 
d="M557 709v327h131v-327h451v-131h-451v-332h-131v332h-451v131h451zM1139 0h-1033v131h1033v-131z" />
    <glyph glyph-name="paragraph" unicode="&#xb6;" horiz-adv-x="1659" 
d="M1020 1331h-180v-1540l-66 4l-65 -4v873l-74 -5q-182 0 -289.5 94.5t-107.5 278.5q0 103 40.5 189t122.5 127q56 28 133.5 38.5t174.5 10.5h438v-1606l-62 4l-65 -4v1540zM516 1090v-132q0 -108 29 -163q39 -78 135 -78l29 4v610h-13q-108 0 -144 -59.5t-36 -181.5z" />
    <glyph glyph-name="onequarter" unicode="&#xbc;" horiz-adv-x="1780" 
 />
    <glyph glyph-name="onehalf" unicode="&#xbd;" horiz-adv-x="1780" 
 />
    <glyph glyph-name="threequarters" unicode="&#xbe;" horiz-adv-x="1780" 
 />
    <glyph glyph-name=".notdef.106" unicode="&#xc0;" horiz-adv-x="1376" 
d="M721 1425l614 -1433q-22 2 -51 5t-55 3q-31 0 -61.5 -3t-49.5 -5q-96 289 -213 557h-520q-86 -211 -131 -335t-74 -222q-28 6 -40.5 7t-33.5 1q-20 0 -40.5 -3t-32.5 -5l639 1433h49zM872 635l-225 524l-225 -524h450zM860 1499h-69l-324 201q-25 22 -49 45q-4 8 -4 33
v24q14 41 69 41h17l24 -12q21 -14 43.5 -38t34.5 -36z" />
    <glyph glyph-name=".notdef.107" unicode="&#xc1;" horiz-adv-x="1376" 
d="M721 1425l614 -1433q-22 2 -51 5t-55 3q-31 0 -61.5 -3t-49.5 -5q-96 289 -213 557h-520q-86 -211 -131 -335t-74 -222q-28 6 -40.5 7t-33.5 1q-20 0 -40.5 -3t-32.5 -5l639 1433h49zM872 635l-225 524l-225 -524h450zM926 1700l-323 -201h-70l258 258l49 49q31 21 62 41
h16q47 0 62 -45l4 -33q0 -16 -8 -24q-4 -12 -22.5 -25.5t-27.5 -19.5z" />
    <glyph glyph-name=".notdef.111" unicode="&#xc2;" horiz-adv-x="1376" 
d="M721 1425l614 -1433q-22 2 -51 5t-55 3q-31 0 -61.5 -3t-49.5 -5q-96 289 -213 557h-520q-86 -211 -131 -335t-74 -222q-28 6 -40.5 7t-33.5 1q-20 0 -40.5 -3t-32.5 -5l639 1433h49zM872 635l-225 524l-225 -524h450zM451 1511h-70l254 344h111l254 -344h-70l-237 218z
" />
    <glyph glyph-name=".notdef.109" unicode="&#xc3;" horiz-adv-x="1376" 
d="M721 1425l614 -1433q-22 2 -51 5t-55 3q-31 0 -61.5 -3t-49.5 -5q-96 289 -213 557h-520q-86 -211 -131 -335t-74 -222q-28 6 -40.5 7t-33.5 1q-20 0 -40.5 -3t-32.5 -5l639 1433h49zM872 635l-225 524l-225 -524h450zM450 1565h-49q17 84 69 140t120 56q32 0 48.5 -6
t28 -11t58.5 -32l65 -33q17 -4 27 -7t22 -5q19 0 37.5 10.5t27.5 23.5t18.5 33.5t15.5 39.5h53q-21 -88 -66 -144q-53 -65 -127 -65q-45 0 -84 18q-30 19 -47 27q-26 14 -57 29.5t-57 15.5l-41 -8q-23 -9 -36 -28.5t-26 -53.5z" />
    <glyph glyph-name=".notdef.123" unicode="&#xc8;" horiz-adv-x="1290" 
d="M184 1397h910l-4 -62l4 -61q-39 8 -91.5 14t-93.5 6l-204 4h-340v-512h499q31 0 92.5 4.5t92.5 4.5q-9 -33 -9 -54l9 -57q-31 0 -92.5 6t-92.5 6h-499v-598l86 -4q118 0 221.5 3t245.5 9q55 0 106 6.5t82 10.5l-4 -62l4 -61h-922v1397zM801 1499h-69l-324 201
q-25 22 -49 45q-4 8 -4 33v24q14 41 69 41h17l24 -12q21 -14 43.5 -38t34.5 -36z" />
    <glyph glyph-name=".notdef.124" unicode="&#xc9;" horiz-adv-x="1290" 
d="M184 1397h910l-4 -62l4 -61q-39 8 -91.5 14t-93.5 6l-204 4h-340v-512h499q31 0 92.5 4.5t92.5 4.5q-9 -33 -9 -54l9 -57q-31 0 -92.5 6t-92.5 6h-499v-598l86 -4q118 0 221.5 3t245.5 9q55 0 106 6.5t82 10.5l-4 -62l4 -61h-922v1397zM824 1700l-323 -201h-70l258 258
l49 49q31 21 62 41h16q47 0 62 -45l4 -33q0 -16 -8 -24q-4 -12 -22.5 -25.5t-27.5 -19.5z" />
    <glyph glyph-name=".notdef.128" unicode="&#xca;" horiz-adv-x="1290" 
d="M184 1397h910l-4 -62l4 -61q-39 8 -91.5 14t-93.5 6l-204 4h-340v-512h499q31 0 92.5 4.5t92.5 4.5q-9 -33 -9 -54l9 -57q-31 0 -92.5 6t-92.5 6h-499v-598l86 -4q118 0 221.5 3t245.5 9q55 0 106 6.5t82 10.5l-4 -62l4 -61h-922v1397zM404 1511h-70l254 344h111
l254 -344h-70l-237 218z" />
    <glyph glyph-name=".notdef.104" unicode="&#xcc;" horiz-adv-x="590" 
d="M197 -8v1405q20 -4 40.5 -6t49.5 -2q35 0 56.5 4t33.5 4v-1405q-25 4 -45.5 6t-44.5 2q-25 0 -50.5 -3t-39.5 -5zM448 1499h-69l-324 201q-25 22 -49 45q-4 8 -4 33v24q14 41 69 41h17l24 -12q21 -14 43.5 -38t34.5 -36z" />
    <glyph glyph-name=".notdef.103" unicode="&#xcd;" horiz-adv-x="590" 
d="M197 -8v1405q20 -4 40.5 -6t49.5 -2q35 0 56.5 4t33.5 4v-1405q-25 4 -45.5 6t-44.5 2q-25 0 -50.5 -3t-39.5 -5zM519 1700l-323 -201h-70l258 258l49 49q31 21 62 41h16q47 0 62 -45l4 -33q0 -16 -8 -24q-4 -12 -22.5 -25.5t-27.5 -19.5z" />
    <glyph glyph-name=".notdef.099" unicode="&#xd2;" horiz-adv-x="1376" 
d="M1155 709q0 147 -22.5 249.5t-87 199.5t-158.5 149.5t-199 52.5q-227 0 -357 -187.5t-130 -500.5q0 -301 137 -473q129 -162 334 -162q235 0 372 233q111 187 111 406v33zM664 -33q-285 0 -460 200t-175 529q0 330 181 529.5t458 199.5q272 0 452 -165q207 -191 207 -535
q0 -340 -184.5 -549t-478.5 -209zM870 1499h-69l-324 201q-25 22 -49 45q-4 8 -4 33v24q14 41 69 41h17l24 -12q21 -14 43.5 -38t34.5 -36z" />
    <glyph glyph-name=".notdef.098" unicode="&#xd3;" horiz-adv-x="1376" 
d="M1155 709q0 147 -22.5 249.5t-87 199.5t-158.5 149.5t-199 52.5q-227 0 -357 -187.5t-130 -500.5q0 -301 137 -473q129 -162 334 -162q235 0 372 233q111 187 111 406v33zM664 -33q-285 0 -460 200t-175 529q0 330 181 529.5t458 199.5q272 0 452 -165q207 -191 207 -535
q0 -340 -184.5 -549t-478.5 -209zM866 1700l-323 -201h-70l258 258l49 49q31 21 62 41h16q47 0 62 -45l4 -33q0 -16 -8 -24q-4 -12 -22.5 -25.5t-27.5 -19.5z" />
    <glyph glyph-name=".notdef.094" unicode="&#xd4;" horiz-adv-x="1376" 
d="M1155 709q0 147 -22.5 249.5t-87 199.5t-158.5 149.5t-199 52.5q-227 0 -357 -187.5t-130 -500.5q0 -301 137 -473q129 -162 334 -162q235 0 372 233q111 187 111 406v33zM664 -33q-285 0 -460 200t-175 529q0 330 181 529.5t458 199.5q272 0 452 -165q207 -191 207 -535
q0 -340 -184.5 -549t-478.5 -209zM446 1511h-70l254 344h111l254 -344h-70l-237 218z" />
    <glyph glyph-name=".notdef.096" unicode="&#xd5;" horiz-adv-x="1376" 
d="M1155 709q0 147 -22.5 249.5t-87 199.5t-158.5 149.5t-199 52.5q-227 0 -357 -187.5t-130 -500.5q0 -301 137 -473q129 -162 334 -162q235 0 372 233q111 187 111 406v33zM664 -33q-285 0 -460 200t-175 529q0 330 181 529.5t458 199.5q272 0 452 -165q207 -191 207 -535
q0 -340 -184.5 -549t-478.5 -209zM450 1565h-49q17 84 69 140t120 56q32 0 48.5 -6t28 -11t58.5 -32l65 -33q17 -4 27 -7t22 -5q19 0 37.5 10.5t27.5 23.5t18.5 33.5t15.5 39.5h53q-21 -88 -66 -144q-53 -65 -127 -65q-45 0 -84 18q-30 19 -47 27q-26 14 -57 29.5t-57 15.5
l-41 -8q-23 -9 -36 -28.5t-26 -53.5z" />
    <glyph glyph-name="multiply" unicode="&#xd7;" horiz-adv-x="1241" 
d="M186 1041l98 99l337 -337l337 337l98 -99l-337 -336l337 -337l-98 -98l-337 336l-337 -336l-98 98l337 337z" />
    <glyph glyph-name=".notdef.088" unicode="&#xd9;" horiz-adv-x="1376" 
d="M250 1397v-787q0 -284 94 -407q105 -137 361 -137q231 0 342 157q100 142 100 408v766q33 -8 57 -8l58 8v-815q0 -297 -161 -456t-437 -159q-152 0 -258.5 36t-190.5 113t-119 212q-26 102 -26 250v819q36 -4 49.5 -6t40.5 -2q35 0 56.5 4t33.5 4zM860 1499h-69l-324 201
q-25 22 -49 45q-4 8 -4 33v24q14 41 69 41h17l24 -12q21 -14 43.5 -38t34.5 -36z" />
    <glyph glyph-name=".notdef.087" unicode="&#xda;" horiz-adv-x="1376" 
d="M250 1397v-787q0 -284 94 -407q105 -137 361 -137q231 0 342 157q100 142 100 408v766q33 -8 57 -8l58 8v-815q0 -297 -161 -456t-437 -159q-152 0 -258.5 36t-190.5 113t-119 212q-26 102 -26 250v819q36 -4 49.5 -6t40.5 -2q35 0 56.5 4t33.5 4zM857 1700l-323 -201
h-70l258 258l49 49q31 21 62 41h16q47 0 62 -45l4 -33q0 -16 -8 -24q-4 -12 -22.5 -25.5t-27.5 -19.5z" />
    <glyph glyph-name=".notdef.070" unicode="&#xdd;" horiz-adv-x="1376" 
d="M786 623v-631q-24 4 -44.5 6t-45.5 2q-24 0 -49.5 -3t-40.5 -5v594l-504 811q50 -4 72.5 -6t42.5 -2q27 0 60.5 3t54.5 5q57 -117 196.5 -361.5t192.5 -326.5q47 53 199 331q100 183 190 357q31 -4 43 -6t39 -2q18 0 40.5 3l37.5 5q-80 -105 -144 -205l-225 -365
q-31 -43 -63.5 -102t-51.5 -102zM876 1700l-323 -201h-70l258 258l49 49q31 21 62 41h16q47 0 62 -45l4 -33q0 -16 -8 -24q-4 -12 -22.5 -25.5t-27.5 -19.5z" />
    <glyph glyph-name=".notdef.066" unicode="&#xe0;" 
d="M848 643v-475l-4 -29q0 -41 10 -59.5t43 -18.5l66 13v-45q-27 -15 -62 -21l-74 -8q-59 0 -95 28.5t-44 98.5l-16 -21q-131 -131 -303 -131q-115 0 -195 71t-80 183q0 121 71 187.5t310 107.5q105 17 137 27q80 27 80 108q0 115 -61.5 178.5t-179.5 63.5q-101 0 -172 -53
q-58 -41 -70 -90h-25v114q80 56 160 85.5t172 29.5q332 0 332 -344zM684 205v299l-74 -12q-182 -37 -225 -58q-123 -55 -123 -176q0 -96 52.5 -144t148.5 -48q43 0 89 22.5t75 54.5q16 13 36.5 33.5t20.5 28.5zM699 1090h-69l-324 200q-24 23 -49 45q-4 8 -4 33v25
q14 41 70 41h16q12 -7 25 -13q20 -14 42.5 -37.5t34.5 -35.5z" />
    <glyph glyph-name=".notdef.065" unicode="&#xe1;" 
d="M848 643v-475l-4 -29q0 -41 10 -59.5t43 -18.5l66 13v-45q-27 -15 -62 -21l-74 -8q-59 0 -95 28.5t-44 98.5l-16 -21q-131 -131 -303 -131q-115 0 -195 71t-80 183q0 121 71 187.5t310 107.5q105 17 137 27q80 27 80 108q0 115 -61.5 178.5t-179.5 63.5q-101 0 -172 -53
q-58 -41 -70 -90h-25v114q80 56 160 85.5t172 29.5q332 0 332 -344zM684 205v299l-74 -12q-182 -37 -225 -58q-123 -55 -123 -176q0 -96 52.5 -144t148.5 -48q43 0 89 22.5t75 54.5q16 13 36.5 33.5t20.5 28.5zM715 1290l-324 -200h-69l258 258l49 49q31 20 61 41h17
q47 0 61 -45l4 -33q0 -17 -8 -25q-4 -12 -22.5 -25.5t-26.5 -19.5z" />
    <glyph glyph-name=".notdef.061" unicode="&#xe2;" 
d="M848 643v-475l-4 -29q0 -41 10 -59.5t43 -18.5l66 13v-45q-27 -15 -62 -21l-74 -8q-59 0 -95 28.5t-44 98.5l-16 -21q-131 -131 -303 -131q-115 0 -195 71t-80 183q0 121 71 187.5t310 107.5q105 17 137 27q80 27 80 108q0 115 -61.5 178.5t-179.5 63.5q-101 0 -172 -53
q-58 -41 -70 -90h-25v114q80 56 160 85.5t172 29.5q332 0 332 -344zM684 205v299l-74 -12q-182 -37 -225 -58q-123 -55 -123 -176q0 -96 52.5 -144t148.5 -48q43 0 89 22.5t75 54.5q16 13 36.5 33.5t20.5 28.5zM273 1069h-69l254 344h110l254 -344h-69l-238 217z" />
    <glyph glyph-name=".notdef.063" unicode="&#xe3;" 
d="M848 643v-475l-4 -29q0 -41 10 -59.5t43 -18.5l66 13v-45q-27 -15 -62 -21l-74 -8q-59 0 -95 28.5t-44 98.5l-16 -21q-131 -131 -303 -131q-115 0 -195 71t-80 183q0 121 71 187.5t310 107.5q105 17 137 27q80 27 80 108q0 115 -61.5 178.5t-179.5 63.5q-101 0 -172 -53
q-58 -41 -70 -90h-25v114q80 56 160 85.5t172 29.5q332 0 332 -344zM684 205v299l-74 -12q-182 -37 -225 -58q-123 -55 -123 -176q0 -96 52.5 -144t148.5 -48q43 0 89 22.5t75 54.5q16 13 36.5 33.5t20.5 28.5zM287 1143h-53q16 82 69.5 139t123.5 57q32 0 45 -4l86 -45
q34 -20 69 -33q8 -2 23.5 -7t21.5 -5q19 0 37.5 10.5t28.5 25.5t20.5 36.5t16.5 34.5h49q-16 -86 -64 -144q-53 -65 -129 -65q-30 0 -43.5 4t-87.5 41q-39 20 -57 29q-35 16 -57 16l-41 -8q-21 -8 -36.5 -32t-21.5 -50z" />
    <glyph glyph-name=".notdef.049" unicode="&#xe8;" 
d="M909 205l-4 -107q-80 -57 -169 -90t-183 -33q-217 0 -350 135.5t-133 372.5q0 222 118 359q127 145 353 145q172 0 286 -113q127 -124 127 -346v-45q-71 0 -238 4.5t-175 4.5h-291l-4 -41q0 -164 95 -274.5t265 -110.5q92 0 182 49q58 30 121 90zM250 565h545
q0 156 -52 246q-63 111 -202 111q-135 0 -217 -113q-74 -102 -74 -244zM699 1090h-69l-324 200q-24 23 -49 45q-4 8 -4 33v25q14 41 70 41h16q12 -7 25 -13q20 -14 42.5 -37.5t34.5 -35.5z" />
    <glyph glyph-name=".notdef.048" unicode="&#xe9;" 
d="M909 205l-4 -107q-80 -57 -169 -90t-183 -33q-217 0 -350 135.5t-133 372.5q0 222 118 359q127 145 353 145q172 0 286 -113q127 -124 127 -346v-45q-71 0 -238 4.5t-175 4.5h-291l-4 -41q0 -164 95 -274.5t265 -110.5q92 0 182 49q58 30 121 90zM250 565h545
q0 156 -52 246q-63 111 -202 111q-135 0 -217 -113q-74 -102 -74 -244zM715 1290l-324 -200h-69l258 258l49 49q31 20 61 41h17q47 0 61 -45l4 -33q0 -17 -8 -25q-4 -12 -22.5 -25.5t-26.5 -19.5z" />
    <glyph glyph-name=".notdef.044" unicode="&#xea;" 
d="M909 205l-4 -107q-80 -57 -169 -90t-183 -33q-217 0 -350 135.5t-133 372.5q0 222 118 359q127 145 353 145q172 0 286 -113q127 -124 127 -346v-45q-71 0 -238 4.5t-175 4.5h-291l-4 -41q0 -164 95 -274.5t265 -110.5q92 0 182 49q58 30 121 90zM250 565h545
q0 156 -52 246q-63 111 -202 111q-135 0 -217 -113q-74 -102 -74 -244zM299 1069h-69l254 344h110l254 -344h-69l-238 217z" />
    <glyph glyph-name=".notdef.038" unicode="&#xec;" horiz-adv-x="590" 
d="M369 975v-983l-82 8q-23 0 -35 -1t-47 -7v983q31 -4 43 -6t39 -2zM442 1090h-69l-324 200q-24 23 -49 45q-4 8 -4 33v25q14 41 70 41h16q12 -7 25 -13q20 -14 42.5 -37.5t34.5 -35.5z" />
    <glyph glyph-name=".notdef.037" unicode="&#xed;" horiz-adv-x="590" 
d="M369 975v-983l-82 8q-23 0 -35 -1t-47 -7v983q31 -4 43 -6t39 -2zM526 1290l-324 -200h-69l258 258l49 49q31 20 61 41h17q47 0 61 -45l4 -33q0 -17 -8 -25q-4 -12 -22.5 -25.5t-26.5 -19.5z" />
    <glyph glyph-name=".notdef.033" unicode="&#xf2;" 
d="M66 492q0 219 132 357t334 138q193 0 312 -137t119 -363q0 -211 -117 -354q-129 -158 -346 -158q-185 0 -307 127q-132 136 -132 344zM528 922q-157 0 -237 -148q-66 -121 -66 -311q0 -174 66 -287q78 -135 225 -135q143 0 221 166q62 131 62 289q0 168 -56 280
q-71 146 -215 146zM699 1090h-69l-324 200q-24 23 -49 45q-4 8 -4 33v25q14 41 70 41h16q12 -7 25 -13q20 -14 42.5 -37.5t34.5 -35.5z" />
    <glyph glyph-name=".notdef.032" unicode="&#xf3;" 
d="M66 492q0 219 132 357t334 138q193 0 312 -137t119 -363q0 -211 -117 -354q-129 -158 -346 -158q-185 0 -307 127q-132 136 -132 344zM528 922q-157 0 -237 -148q-66 -121 -66 -311q0 -174 66 -287q78 -135 225 -135q143 0 221 166q62 131 62 289q0 168 -56 280
q-71 146 -215 146zM715 1290l-324 -200h-69l258 258l49 49q31 20 61 41h17q47 0 61 -45l4 -33q0 -17 -8 -25q-4 -12 -22.5 -25.5t-26.5 -19.5z" />
    <glyph glyph-name=".notdef.028" unicode="&#xf4;" 
d="M66 492q0 219 132 357t334 138q193 0 312 -137t119 -363q0 -211 -117 -354q-129 -158 -346 -158q-185 0 -307 127q-132 136 -132 344zM528 922q-157 0 -237 -148q-66 -121 -66 -311q0 -174 66 -287q78 -135 225 -135q143 0 221 166q62 131 62 289q0 168 -56 280
q-71 146 -215 146zM291 1069h-69l254 344h110l254 -344h-69l-238 217z" />
    <glyph glyph-name=".notdef.030" unicode="&#xf5;" 
d="M66 492q0 219 132 357t334 138q193 0 312 -137t119 -363q0 -211 -117 -354q-129 -158 -346 -158q-185 0 -307 127q-132 136 -132 344zM528 922q-157 0 -237 -148q-66 -121 -66 -311q0 -174 66 -287q78 -135 225 -135q143 0 221 166q62 131 62 289q0 168 -56 280
q-71 146 -215 146zM287 1143h-53q16 82 69.5 139t123.5 57q32 0 45 -4l86 -45q34 -20 69 -33q8 -2 23.5 -7t21.5 -5q19 0 37.5 10.5t28.5 25.5t20.5 36.5t16.5 34.5h49q-16 -86 -64 -144q-53 -65 -129 -65q-30 0 -43.5 4t-87.5 41q-39 20 -57 29q-35 16 -57 16l-41 -8
q-21 -8 -36.5 -32t-21.5 -50z" />
    <glyph glyph-name="divide" unicode="&#xf7;" horiz-adv-x="1706" 
 />
    <glyph glyph-name=".notdef.022" unicode="&#xf9;" 
d="M909 975v-983l-82 8q-22 0 -34.5 -1t-47.5 -7v180q-102 -197 -327 -197q-170 0 -253 95.5t-83 302.5v602q31 -4 43 -6t39 -2l82 8v-553q0 -172 55 -258t191 -86q141 0 204 110q49 84 49 222v565q31 -4 43.5 -6t38.5 -2zM699 1090h-69l-324 200q-24 23 -49 45q-4 8 -4 33
v25q14 41 70 41h16q12 -7 25 -13q20 -14 42.5 -37.5t34.5 -35.5z" />
    <glyph glyph-name=".notdef.021" unicode="&#xfa;" 
d="M909 975v-983l-82 8q-22 0 -34.5 -1t-47.5 -7v180q-102 -197 -327 -197q-170 0 -253 95.5t-83 302.5v602q31 -4 43 -6t39 -2l82 8v-553q0 -172 55 -258t191 -86q141 0 204 110q49 84 49 222v565q31 -4 43.5 -6t38.5 -2zM715 1290l-324 -200h-69l258 258l49 49
q31 20 61 41h17q47 0 61 -45l4 -33q0 -17 -8 -25q-4 -12 -22.5 -25.5t-26.5 -19.5z" />
    <glyph glyph-name=".notdef.004" unicode="&#xfd;" 
d="M467 4l-414 971q25 -4 47.5 -6t51.5 -2q22 0 50.5 3l47.5 5q61 -193 131 -370t172 -392q65 135 156.5 363.5t150.5 398.5q17 -4 33 -6t37 -2q16 0 65 8q-211 -469 -233 -518q-164 -361 -221 -494q-125 -285 -209 -495q-19 4 -34 6t-36 2q-29 0 -43 -2q-18 -6 -26 -6z
M715 1290l-324 -200h-69l258 258l49 49q31 20 61 41h17q47 0 61 -45l4 -33q0 -17 -8 -25q-4 -12 -22.5 -25.5t-26.5 -19.5z" />
    <glyph glyph-name=".notdef.117" unicode="&#x102;" horiz-adv-x="1376" 
d="M721 1425l614 -1433q-22 2 -51 5t-55 3q-31 0 -61.5 -3t-49.5 -5q-96 289 -213 557h-520q-86 -211 -131 -335t-74 -222q-28 6 -40.5 7t-33.5 1q-20 0 -40.5 -3t-32.5 -5l639 1433h49zM872 635l-225 524l-225 -524h450zM982 1736q-23 -113 -93.5 -177.5t-193.5 -64.5
q-108 0 -181 69.5t-89 172.5h78q28 -60 81.5 -93.5t122.5 -33.5q148 0 205 127h70z" />
    <glyph glyph-name=".notdef.055" unicode="&#x103;" 
d="M848 643v-475l-4 -29q0 -41 10 -59.5t43 -18.5l66 13v-45q-27 -15 -62 -21l-74 -8q-59 0 -95 28.5t-44 98.5l-16 -21q-131 -131 -303 -131q-115 0 -195 71t-80 183q0 121 71 187.5t310 107.5q105 17 137 27q80 27 80 108q0 115 -61.5 178.5t-179.5 63.5q-101 0 -172 -53
q-58 -41 -70 -90h-25v114q80 56 160 85.5t172 29.5q332 0 332 -344zM684 205v299l-74 -12q-182 -37 -225 -58q-123 -55 -123 -176q0 -96 52.5 -144t148.5 -48q43 0 89 22.5t75 54.5q16 13 36.5 33.5t20.5 28.5zM798 1331q-23 -112 -93.5 -176.5t-193.5 -64.5
q-109 0 -181.5 69.5t-88.5 171.5h77q29 -59 82.5 -93t122.5 -34q148 0 205 127h70z" />
    <glyph glyph-name="Ccaron" unicode="&#x10c;" horiz-adv-x="1274" 
 />
    <glyph glyph-name="ccaron" unicode="&#x10d;" horiz-adv-x="922" 
 />
    <glyph glyph-name="Dslash" unicode="&#x110;" horiz-adv-x="1618" 
d="M266 791v606h545q152 0 236 -19q122 -26 215 -104q110 -90 165.5 -226.5t55.5 -285.5q0 -205 -72 -361q-61 -135 -186 -245q-90 -78 -221.5 -117t-397.5 -39h-340v700h-82v91h82zM446 1315v-524h394v-91h-394v-606q29 0 66 -4q113 -12 147 -12l41 4q164 0 287 61
q156 78 230 240q65 143 65 346q0 320 -137 457t-440 137q-41 0 -143.5 -4t-115.5 -4z" />
    <glyph glyph-name="dcroat" unicode="&#x111;" horiz-adv-x="1159" 
d="M999 1212v-1220l-81 8q-23 0 -35.5 -1t-46.5 -7v201q-131 -218 -353 -218q-184 0 -293 123q-116 131 -116 377q0 219 119.5 365.5t318.5 146.5q106 0 185 -51t139 -150v426h-263v91h263v229l82 -4l81 4v-229h86v-91h-86zM836 512q0 154 -60 258q-76 131 -219 131
q-178 0 -250 -147q-53 -109 -53 -308q0 -155 59 -262q74 -131 219 -131q160 0 240 158q64 125 64 301z" />
    <glyph glyph-name=".notdef.101" unicode="&#x128;" horiz-adv-x="590" 
d="M197 -8v1405q20 -4 40.5 -6t49.5 -2q35 0 56.5 4t33.5 4v-1405q-25 4 -45.5 6t-44.5 2q-25 0 -50.5 -3t-39.5 -5zM43 1565h-49q17 84 69 140t120 56q32 0 48.5 -6t28 -11t58.5 -32l65 -33q17 -4 27 -7t22 -5q19 0 37.5 10.5t27.5 23.5t18.5 33.5t15.5 39.5h53
q-21 -88 -66 -144q-53 -65 -127 -65q-45 0 -84 18q-30 19 -47 27q-26 14 -57 29.5t-57 15.5l-41 -8q-23 -9 -36 -28.5t-26 -53.5z" />
    <glyph glyph-name=".notdef.035" unicode="&#x129;" horiz-adv-x="590" 
d="M369 975v-983l-82 8q-23 0 -35 -1t-47 -7v983q31 -4 43 -6t39 -2zM52 1146h-53q16 82 69.5 139t123.5 57q32 0 45 -4l86 -45q34 -20 69 -33q8 -2 23.5 -7t21.5 -5q19 0 37.5 10.5t28.5 25.5t20.5 36.5t16.5 34.5h49q-16 -86 -64 -144q-53 -65 -129 -65q-30 0 -43.5 4
t-87.5 41q-39 20 -57 29q-35 16 -57 16l-41 -8q-21 -8 -36.5 -32t-21.5 -50z" />
    <glyph glyph-name=".notdef.085" unicode="&#x168;" horiz-adv-x="1376" 
d="M250 1397v-787q0 -284 94 -407q105 -137 361 -137q231 0 342 157q100 142 100 408v766q33 -8 57 -8l58 8v-815q0 -297 -161 -456t-437 -159q-152 0 -258.5 36t-190.5 113t-119 212q-26 102 -26 250v819q36 -4 49.5 -6t40.5 -2q35 0 56.5 4t33.5 4zM450 1565h-49
q17 84 69 140t120 56q32 0 48.5 -6t28 -11t58.5 -32l65 -33q17 -4 27 -7t22 -5q19 0 37.5 10.5t27.5 23.5t18.5 33.5t15.5 39.5h53q-21 -88 -66 -144q-53 -65 -127 -65q-45 0 -84 18q-30 19 -47 27q-26 14 -57 29.5t-57 15.5l-41 -8q-23 -9 -36 -28.5t-26 -53.5z" />
    <glyph glyph-name=".notdef.019" unicode="&#x169;" 
d="M909 975v-983l-82 8q-22 0 -34.5 -1t-47.5 -7v180q-102 -197 -327 -197q-170 0 -253 95.5t-83 302.5v602q31 -4 43 -6t39 -2l82 8v-553q0 -172 55 -258t191 -86q141 0 204 110q49 84 49 222v565q31 -4 43.5 -6t38.5 -2zM287 1143h-53q16 82 69.5 139t123.5 57q32 0 45 -4
l86 -45q34 -20 69 -33q8 -2 23.5 -7t21.5 -5q19 0 37.5 10.5t28.5 25.5t20.5 36.5t16.5 34.5h49q-16 -86 -64 -144q-53 -65 -129 -65q-30 0 -43.5 4t-87.5 41q-39 20 -57 29q-35 16 -57 16l-41 -8q-21 -8 -36.5 -32t-21.5 -50z" />
    <glyph glyph-name=".notdef.077" unicode="&#x1a0;" horiz-adv-x="1376" 
d="M1094 1278q24 0 54 11t44 31.5t14 55.5q0 39 -24 72q-6 10 -37 12t-33 8v123l57 -8l103 4h49l-4 -28v-107q0 -45 -14.5 -97t-30.5 -71q-41 -47 -121 -59q82 -88 129 -215t47 -285q0 -340 -184.5 -549t-478.5 -209q-285 0 -460 200t-175 529q0 330 181 529.5t458 199.5
q112 0 224 -37.5t202 -109.5zM1155 709q0 147 -22.5 249.5t-87 199.5t-158.5 149.5t-199 52.5q-227 0 -357 -187.5t-130 -500.5q0 -301 137 -473q129 -162 334 -162q235 0 372 233q111 187 111 406v33z" />
    <glyph glyph-name=".notdef.011" unicode="&#x1a1;" 
d="M823 864q23 4 45.5 12.5t36 27t13.5 50.5q0 15 -7.5 26t-17.5 21q-6 11 -37 13t-33 8v123l62 -8h135l-4 -33v-78q0 -59 -6 -92t-39 -70q-39 -45 -99 -57q91 -129 91 -320q0 -211 -117 -354q-129 -158 -346 -158q-185 0 -307 127q-132 136 -132 344l5 46q0 219 132 357
t334 138q168 0 291 -123zM528 922q-157 0 -237 -148q-66 -121 -66 -311q0 -174 66 -287q78 -135 225 -135q143 0 221 166q62 131 62 289q0 168 -56 280q-71 146 -215 146z" />
    <glyph glyph-name=".notdef.083" unicode="&#x1af;" horiz-adv-x="1376" 
d="M1262 1352q16 0 41.5 1t42.5 25q6 11 14 23t8 29q0 22 -18 47q-7 10 -37.5 12t-32.5 8v123l57 -8l90 4h50l-4 -29v-106q0 -47 -7.5 -65.5t-46.5 -63.5q-26 -31 -59 -42.5t-98 -11.5v-716q0 -297 -161 -456t-437 -159q-152 0 -258.5 36t-190.5 113t-119 212
q-26 102 -26 250v819q36 -4 49.5 -6t40.5 -2q35 0 56.5 4t33.5 4v-787q0 -284 94 -407q105 -137 361 -137q231 0 342 157q100 142 100 408v766q33 -8 57 -8l58 8v-45z" />
    <glyph glyph-name=".notdef.017" unicode="&#x1b0;" 
d="M909 930q39 10 54.5 31.5t15.5 54.5q0 41 -16 57q-7 10 -37.5 12t-32.5 9v123l61 -9h136l-5 -32v-78q0 -54 -10 -93.5t-43 -78.5q-24 -29 -52 -41.5t-71 -16.5v-876l-82 8q-22 0 -34.5 -1t-47.5 -7v180q-102 -197 -327 -197q-170 0 -253 95.5t-83 302.5v602q31 -4 43 -6
t39 -2l82 8v-553q0 -172 55 -258t191 -86q141 0 204 110q49 84 49 222v565q31 -4 43.5 -6t38.5 -2l82 8v-45z" />
    <glyph glyph-name=".notdef.110" unicode="&#x1ea0;" horiz-adv-x="1376" 
d="M721 1425l614 -1433q-22 2 -51 5t-55 3q-31 0 -61.5 -3t-49.5 -5q-96 289 -213 557h-520q-86 -211 -131 -335t-74 -222q-28 6 -40.5 7t-33.5 1q-20 0 -40.5 -3t-32.5 -5l639 1433h49zM872 635l-225 524l-225 -524h450zM646 -309q-37 0 -65.5 28.5t-28.5 65.5t28.5 65.5
t65.5 28.5q39 0 66.5 -27.5t27.5 -66.5q0 -37 -28.5 -65.5t-65.5 -28.5z" />
    <glyph glyph-name=".notdef.062" unicode="&#x1ea1;" 
d="M848 643v-475l-4 -29q0 -41 10 -59.5t43 -18.5l66 13v-45q-27 -15 -62 -21l-74 -8q-59 0 -95 28.5t-44 98.5l-16 -21q-131 -131 -303 -131q-115 0 -195 71t-80 183q0 121 71 187.5t310 107.5q105 17 137 27q80 27 80 108q0 115 -61.5 178.5t-179.5 63.5q-101 0 -172 -53
q-58 -41 -70 -90h-25v114q80 56 160 85.5t172 29.5q332 0 332 -344zM684 205v299l-74 -12q-182 -37 -225 -58q-123 -55 -123 -176q0 -96 52.5 -144t148.5 -48q43 0 89 22.5t75 54.5q16 13 36.5 33.5t20.5 28.5zM478 -309q-37 0 -65.5 28.5t-28.5 65.5t28.5 65.5t65.5 28.5
q39 0 66.5 -27.5t27.5 -66.5q0 -37 -28.5 -65.5t-65.5 -28.5z" />
    <glyph glyph-name=".notdef.108" unicode="&#x1ea2;" horiz-adv-x="1376" 
d="M721 1425l614 -1433q-22 2 -51 5t-55 3q-31 0 -61.5 -3t-49.5 -5q-96 289 -213 557h-520q-86 -211 -131 -335t-74 -222q-28 6 -40.5 7t-33.5 1q-20 0 -40.5 -3t-32.5 -5l639 1433h49zM872 635l-225 524l-225 -524h450zM498 1859l20 55q7 16 25 31q16 20 65.5 38.5
t98.5 18.5q37 0 51 -3t54 -16.5t59 -37.5q49 -50 49 -119q0 -25 -15.5 -57.5t-62.5 -81.5l-51 -39l-39 -27q-17 -16 -20 -26.5t-5 -16.5l-4 -72h-53v62q0 18 5 43.5t21 50.5l72 94l19 39q10 31 14 64q0 73 -98 86q-54 -9 -74 -37q12 -25 16 -49q0 -31 -17 -52.5t-52 -25.5
q-31 0 -54.5 23.5t-23.5 54.5z" />
    <glyph glyph-name=".notdef.064" unicode="&#x1ea3;" 
d="M848 643v-475l-4 -29q0 -41 10 -59.5t43 -18.5l66 13v-45q-27 -15 -62 -21l-74 -8q-59 0 -95 28.5t-44 98.5l-16 -21q-131 -131 -303 -131q-115 0 -195 71t-80 183q0 121 71 187.5t310 107.5q105 17 137 27q80 27 80 108q0 115 -61.5 178.5t-179.5 63.5q-101 0 -172 -53
q-58 -41 -70 -90h-25v114q80 56 160 85.5t172 29.5q332 0 332 -344zM684 205v299l-74 -12q-182 -37 -225 -58q-123 -55 -123 -176q0 -96 52.5 -144t148.5 -48q43 0 89 22.5t75 54.5q16 13 36.5 33.5t20.5 28.5zM317 1409l20 55q7 16 25 31q16 20 65.5 38.5t98.5 18.5
q37 0 51 -3t54 -16.5t59 -37.5q49 -50 49 -119q0 -25 -15.5 -57.5t-62.5 -81.5l-51 -39l-39 -27q-17 -16 -20 -26.5t-5 -16.5l-4 -72h-53v62q0 18 5 43.5t21 50.5l72 94l19 39q10 31 14 64q0 73 -98 86q-54 -9 -74 -37q12 -25 16 -49q0 -31 -17 -52.5t-52 -25.5
q-31 0 -54.5 23.5t-23.5 54.5z" />
    <glyph glyph-name=".notdef.113" unicode="&#x1ea4;" horiz-adv-x="1376" 
d="M721 1425l614 -1433q-22 2 -51 5t-55 3q-31 0 -61.5 -3t-49.5 -5q-96 289 -213 557h-520q-86 -211 -131 -335t-74 -222q-28 6 -40.5 7t-33.5 1q-20 0 -40.5 -3t-32.5 -5l639 1433h49zM872 635l-225 524l-225 -524h450zM451 1511h-70l254 344h111l254 -344h-70l-237 218z
M1283 1991l-323 -201h-70l258 258l49 49q31 21 62 41h16q47 0 62 -45l4 -33q0 -16 -8 -24q-4 -12 -22.5 -25.5t-27.5 -19.5z" />
    <glyph glyph-name=".notdef.059" unicode="&#x1ea5;" 
d="M848 643v-475l-4 -29q0 -41 10 -59.5t43 -18.5l66 13v-45q-27 -15 -62 -21l-74 -8q-59 0 -95 28.5t-44 98.5l-16 -21q-131 -131 -303 -131q-115 0 -195 71t-80 183q0 121 71 187.5t310 107.5q105 17 137 27q80 27 80 108q0 115 -61.5 178.5t-179.5 63.5q-101 0 -172 -53
q-58 -41 -70 -90h-25v114q80 56 160 85.5t172 29.5q332 0 332 -344zM684 205v299l-74 -12q-182 -37 -225 -58q-123 -55 -123 -176q0 -96 52.5 -144t148.5 -48q43 0 89 22.5t75 54.5q16 13 36.5 33.5t20.5 28.5zM273 1069h-69l254 344h110l254 -344h-69l-238 217zM1105 1549
l-323 -201h-70l258 258l49 49q31 21 62 41h16q47 0 62 -45l4 -33q0 -16 -8 -24q-4 -12 -22.5 -25.5t-27.5 -19.5z" />
    <glyph glyph-name=".notdef.112" unicode="&#x1ea6;" horiz-adv-x="1376" 
d="M721 1425l614 -1433q-22 2 -51 5t-55 3q-31 0 -61.5 -3t-49.5 -5q-96 289 -213 557h-520q-86 -211 -131 -335t-74 -222q-28 6 -40.5 7t-33.5 1q-20 0 -40.5 -3t-32.5 -5l639 1433h49zM872 635l-225 524l-225 -524h450zM451 1511h-70l254 344h111l254 -344h-70l-237 218z
M1173 1791h-69l-324 201q-25 22 -49 45q-4 8 -4 33v24q14 41 69 41h17l24 -12q21 -14 43.5 -38t34.5 -36z" />
    <glyph glyph-name=".notdef.060" unicode="&#x1ea7;" 
d="M848 643v-475l-4 -29q0 -41 10 -59.5t43 -18.5l66 13v-45q-27 -15 -62 -21l-74 -8q-59 0 -95 28.5t-44 98.5l-16 -21q-131 -131 -303 -131q-115 0 -195 71t-80 183q0 121 71 187.5t310 107.5q105 17 137 27q80 27 80 108q0 115 -61.5 178.5t-179.5 63.5q-101 0 -172 -53
q-58 -41 -70 -90h-25v114q80 56 160 85.5t172 29.5q332 0 332 -344zM684 205v299l-74 -12q-182 -37 -225 -58q-123 -55 -123 -176q0 -96 52.5 -144t148.5 -48q43 0 89 22.5t75 54.5q16 13 36.5 33.5t20.5 28.5zM273 1069h-69l254 344h110l254 -344h-69l-238 217zM996 1349
h-69l-324 201q-25 22 -49 45q-4 8 -4 33v24q14 41 69 41h17l24 -12q21 -14 43.5 -38t34.5 -36z" />
    <glyph glyph-name=".notdef.114" unicode="&#x1ea8;" horiz-adv-x="1376" 
d="M721 1425l614 -1433q-22 2 -51 5t-55 3q-31 0 -61.5 -3t-49.5 -5q-96 289 -213 557h-520q-86 -211 -131 -335t-74 -222q-28 6 -40.5 7t-33.5 1q-20 0 -40.5 -3t-32.5 -5l639 1433h49zM872 635l-225 524l-225 -524h450zM451 1511h-70l254 344h111l254 -344h-70l-237 218z
M772 2119l20 55q7 16 25 31q16 20 65.5 38.5t98.5 18.5q37 0 51 -3t54 -16.5t59 -37.5q49 -50 49 -119q0 -25 -15.5 -57.5t-62.5 -81.5l-51 -39l-39 -27q-17 -16 -20 -26.5t-5 -16.5l-4 -72h-53v62q0 18 5 43.5t21 50.5l72 94l19 39q10 31 14 64q0 73 -98 86q-54 -9 -74 -37
q12 -25 16 -49q0 -31 -17 -52.5t-52 -25.5q-31 0 -54.5 23.5t-23.5 54.5z" />
    <glyph glyph-name=".notdef.058" unicode="&#x1ea9;" 
d="M848 643v-475l-4 -29q0 -41 10 -59.5t43 -18.5l66 13v-45q-27 -15 -62 -21l-74 -8q-59 0 -95 28.5t-44 98.5l-16 -21q-131 -131 -303 -131q-115 0 -195 71t-80 183q0 121 71 187.5t310 107.5q105 17 137 27q80 27 80 108q0 115 -61.5 178.5t-179.5 63.5q-101 0 -172 -53
q-58 -41 -70 -90h-25v114q80 56 160 85.5t172 29.5q332 0 332 -344zM684 205v299l-74 -12q-182 -37 -225 -58q-123 -55 -123 -176q0 -96 52.5 -144t148.5 -48q43 0 89 22.5t75 54.5q16 13 36.5 33.5t20.5 28.5zM273 1069h-69l254 344h110l254 -344h-69l-238 217zM594 1677
l20 55q7 16 25 31q16 20 65.5 38.5t98.5 18.5q37 0 51 -3t54 -16.5t59 -37.5q49 -50 49 -119q0 -25 -15.5 -57.5t-62.5 -81.5l-51 -39l-39 -27q-17 -16 -20 -26.5t-5 -16.5l-4 -72h-53v62q0 18 5 43.5t21 50.5l72 94l19 39q10 31 14 64q0 73 -98 86q-54 -9 -74 -37
q12 -25 16 -49q0 -31 -17 -52.5t-52 -25.5q-31 0 -54.5 23.5t-23.5 54.5z" />
    <glyph glyph-name=".notdef.115" unicode="&#x1eaa;" horiz-adv-x="1376" 
d="M721 1425l614 -1433q-22 2 -51 5t-55 3q-31 0 -61.5 -3t-49.5 -5q-96 289 -213 557h-520q-86 -211 -131 -335t-74 -222q-28 6 -40.5 7t-33.5 1q-20 0 -40.5 -3t-32.5 -5l639 1433h49zM872 635l-225 524l-225 -524h450zM451 1511h-70l254 344h111l254 -344h-70l-237 218z
M448 1921h-49q17 84 69 140t120 56q32 0 48.5 -6t28 -11t58.5 -32l65 -33q17 -4 27 -7t22 -5q19 0 37.5 10.5t27.5 23.5t18.5 33.5t15.5 39.5h53q-21 -88 -66 -144q-53 -65 -127 -65q-45 0 -84 18q-30 19 -47 27q-26 14 -57 29.5t-57 15.5l-41 -8q-23 -9 -36 -28.5
t-26 -53.5z" />
    <glyph glyph-name=".notdef.057" unicode="&#x1eab;" 
d="M848 643v-475l-4 -29q0 -41 10 -59.5t43 -18.5l66 13v-45q-27 -15 -62 -21l-74 -8q-59 0 -95 28.5t-44 98.5l-16 -21q-131 -131 -303 -131q-115 0 -195 71t-80 183q0 121 71 187.5t310 107.5q105 17 137 27q80 27 80 108q0 115 -61.5 178.5t-179.5 63.5q-101 0 -172 -53
q-58 -41 -70 -90h-25v114q80 56 160 85.5t172 29.5q332 0 332 -344zM684 205v299l-74 -12q-182 -37 -225 -58q-123 -55 -123 -176q0 -96 52.5 -144t148.5 -48q43 0 89 22.5t75 54.5q16 13 36.5 33.5t20.5 28.5zM273 1069h-69l254 344h110l254 -344h-69l-238 217zM272 1479
h-49q17 84 69 140t120 56q32 0 48.5 -6t28 -11t58.5 -32l65 -33q17 -4 27 -7t22 -5q19 0 37.5 10.5t27.5 23.5t18.5 33.5t15.5 39.5h53q-21 -88 -66 -144q-53 -65 -127 -65q-45 0 -84 18q-30 19 -47 27q-26 14 -57 29.5t-57 15.5l-41 -8q-23 -9 -36 -28.5t-26 -53.5z" />
    <glyph glyph-name=".notdef.116" unicode="&#x1eac;" horiz-adv-x="1376" 
d="M721 1425l614 -1433q-22 2 -51 5t-55 3q-31 0 -61.5 -3t-49.5 -5q-96 289 -213 557h-520q-86 -211 -131 -335t-74 -222q-28 6 -40.5 7t-33.5 1q-20 0 -40.5 -3t-32.5 -5l639 1433h49zM872 635l-225 524l-225 -524h450zM451 1511h-70l254 344h111l254 -344h-70l-237 218z
M646 -309q-37 0 -65.5 28.5t-28.5 65.5t28.5 65.5t65.5 28.5q39 0 66.5 -27.5t27.5 -66.5q0 -37 -28.5 -65.5t-65.5 -28.5z" />
    <glyph glyph-name=".notdef.056" unicode="&#x1ead;" 
d="M848 643v-475l-4 -29q0 -41 10 -59.5t43 -18.5l66 13v-45q-27 -15 -62 -21l-74 -8q-59 0 -95 28.5t-44 98.5l-16 -21q-131 -131 -303 -131q-115 0 -195 71t-80 183q0 121 71 187.5t310 107.5q105 17 137 27q80 27 80 108q0 115 -61.5 178.5t-179.5 63.5q-101 0 -172 -53
q-58 -41 -70 -90h-25v114q80 56 160 85.5t172 29.5q332 0 332 -344zM684 205v299l-74 -12q-182 -37 -225 -58q-123 -55 -123 -176q0 -96 52.5 -144t148.5 -48q43 0 89 22.5t75 54.5q16 13 36.5 33.5t20.5 28.5zM273 1069h-69l254 344h110l254 -344h-69l-238 217zM478 -309
q-37 0 -65.5 28.5t-28.5 65.5t28.5 65.5t65.5 28.5q39 0 66.5 -27.5t27.5 -66.5q0 -37 -28.5 -65.5t-65.5 -28.5z" />
    <glyph glyph-name=".notdef.119" unicode="&#x1eae;" horiz-adv-x="1376" 
d="M721 1425l614 -1433q-22 2 -51 5t-55 3q-31 0 -61.5 -3t-49.5 -5q-96 289 -213 557h-520q-86 -211 -131 -335t-74 -222q-28 6 -40.5 7t-33.5 1q-20 0 -40.5 -3t-32.5 -5l639 1433h49zM872 635l-225 524l-225 -524h450zM982 1736q-23 -113 -93.5 -177.5t-193.5 -64.5
q-108 0 -181 69.5t-89 172.5h78q28 -60 81.5 -93.5t122.5 -33.5q148 0 205 127h70zM948 1961l-323 -201h-70l258 258l49 49q31 21 62 41h16q47 0 62 -45l4 -33q0 -16 -8 -24q-4 -12 -22.5 -25.5t-27.5 -19.5z" />
    <glyph glyph-name=".notdef.053" unicode="&#x1eaf;" 
d="M848 643v-475l-4 -29q0 -41 10 -59.5t43 -18.5l66 13v-45q-27 -15 -62 -21l-74 -8q-59 0 -95 28.5t-44 98.5l-16 -21q-131 -131 -303 -131q-115 0 -195 71t-80 183q0 121 71 187.5t310 107.5q105 17 137 27q80 27 80 108q0 115 -61.5 178.5t-179.5 63.5q-101 0 -172 -53
q-58 -41 -70 -90h-25v114q80 56 160 85.5t172 29.5q332 0 332 -344zM684 205v299l-74 -12q-182 -37 -225 -58q-123 -55 -123 -176q0 -96 52.5 -144t148.5 -48q43 0 89 22.5t75 54.5q16 13 36.5 33.5t20.5 28.5zM798 1331q-23 -112 -93.5 -176.5t-193.5 -64.5
q-109 0 -181.5 69.5t-88.5 171.5h77q29 -59 82.5 -93t122.5 -34q148 0 205 127h70zM764 1557l-323 -201h-70l258 258l49 49q31 21 62 41h16q47 0 62 -45l4 -33q0 -16 -8 -24q-4 -12 -22.5 -25.5t-27.5 -19.5z" />
    <glyph glyph-name=".notdef.118" unicode="&#x1eb0;" horiz-adv-x="1376" 
d="M721 1425l614 -1433q-22 2 -51 5t-55 3q-31 0 -61.5 -3t-49.5 -5q-96 289 -213 557h-520q-86 -211 -131 -335t-74 -222q-28 6 -40.5 7t-33.5 1q-20 0 -40.5 -3t-32.5 -5l639 1433h49zM872 635l-225 524l-225 -524h450zM982 1736q-23 -113 -93.5 -177.5t-193.5 -64.5
q-108 0 -181 69.5t-89 172.5h78q28 -60 81.5 -93.5t122.5 -33.5q148 0 205 127h70zM863 1761h-69l-324 201q-25 22 -49 45q-4 8 -4 33v24q14 41 69 41h17l24 -12q21 -14 43.5 -38t34.5 -36z" />
    <glyph glyph-name=".notdef.054" unicode="&#x1eb1;" 
d="M848 643v-475l-4 -29q0 -41 10 -59.5t43 -18.5l66 13v-45q-27 -15 -62 -21l-74 -8q-59 0 -95 28.5t-44 98.5l-16 -21q-131 -131 -303 -131q-115 0 -195 71t-80 183q0 121 71 187.5t310 107.5q105 17 137 27q80 27 80 108q0 115 -61.5 178.5t-179.5 63.5q-101 0 -172 -53
q-58 -41 -70 -90h-25v114q80 56 160 85.5t172 29.5q332 0 332 -344zM684 205v299l-74 -12q-182 -37 -225 -58q-123 -55 -123 -176q0 -96 52.5 -144t148.5 -48q43 0 89 22.5t75 54.5q16 13 36.5 33.5t20.5 28.5zM798 1331q-23 -112 -93.5 -176.5t-193.5 -64.5
q-109 0 -181.5 69.5t-88.5 171.5h77q29 -59 82.5 -93t122.5 -34q148 0 205 127h70zM679 1356h-69l-324 201q-25 22 -49 45q-4 8 -4 33v24q14 41 69 41h17l24 -12q21 -14 43.5 -38t34.5 -36z" />
    <glyph glyph-name=".notdef.120" unicode="&#x1eb2;" horiz-adv-x="1376" 
d="M721 1425l614 -1433q-22 2 -51 5t-55 3q-31 0 -61.5 -3t-49.5 -5q-96 289 -213 557h-520q-86 -211 -131 -335t-74 -222q-28 6 -40.5 7t-33.5 1q-20 0 -40.5 -3t-32.5 -5l639 1433h49zM872 635l-225 524l-225 -524h450zM982 1736q-23 -113 -93.5 -177.5t-193.5 -64.5
q-108 0 -181 69.5t-89 172.5h78q28 -60 81.5 -93.5t122.5 -33.5q148 0 205 127h70zM506 2114l20 55q7 16 25 31q16 20 65.5 38.5t98.5 18.5q37 0 51 -3t54 -16.5t59 -37.5q49 -50 49 -119q0 -25 -15.5 -57.5t-62.5 -81.5l-51 -39l-39 -27q-17 -16 -20 -26.5t-5 -16.5l-4 -72
h-53v62q0 18 5 43.5t21 50.5l72 94l19 39q10 31 14 64q0 73 -98 86q-54 -9 -74 -37q12 -25 16 -49q0 -31 -17 -52.5t-52 -25.5q-31 0 -54.5 23.5t-23.5 54.5z" />
    <glyph glyph-name=".notdef.052" unicode="&#x1eb3;" 
d="M848 643v-475l-4 -29q0 -41 10 -59.5t43 -18.5l66 13v-45q-27 -15 -62 -21l-74 -8q-59 0 -95 28.5t-44 98.5l-16 -21q-131 -131 -303 -131q-115 0 -195 71t-80 183q0 121 71 187.5t310 107.5q105 17 137 27q80 27 80 108q0 115 -61.5 178.5t-179.5 63.5q-101 0 -172 -53
q-58 -41 -70 -90h-25v114q80 56 160 85.5t172 29.5q332 0 332 -344zM684 205v299l-74 -12q-182 -37 -225 -58q-123 -55 -123 -176q0 -96 52.5 -144t148.5 -48q43 0 89 22.5t75 54.5q16 13 36.5 33.5t20.5 28.5zM798 1331q-23 -112 -93.5 -176.5t-193.5 -64.5
q-109 0 -181.5 69.5t-88.5 171.5h77q29 -59 82.5 -93t122.5 -34q148 0 205 127h70zM322 1710l20 55q7 16 25 31q16 20 65.5 38.5t98.5 18.5q37 0 51 -3t54 -16.5t59 -37.5q49 -50 49 -119q0 -25 -15.5 -57.5t-62.5 -81.5l-51 -39l-39 -27q-17 -16 -20 -26.5t-5 -16.5l-4 -72
h-53v62q0 18 5 43.5t21 50.5l72 94l19 39q10 31 14 64q0 73 -98 86q-54 -9 -74 -37q12 -25 16 -49q0 -31 -17 -52.5t-52 -25.5q-31 0 -54.5 23.5t-23.5 54.5z" />
    <glyph glyph-name=".notdef.121" unicode="&#x1eb4;" horiz-adv-x="1376" 
d="M721 1425l614 -1433q-22 2 -51 5t-55 3q-31 0 -61.5 -3t-49.5 -5q-96 289 -213 557h-520q-86 -211 -131 -335t-74 -222q-28 6 -40.5 7t-33.5 1q-20 0 -40.5 -3t-32.5 -5l639 1433h49zM872 635l-225 524l-225 -524h450zM982 1736q-23 -113 -93.5 -177.5t-193.5 -64.5
q-108 0 -181 69.5t-89 172.5h78q28 -60 81.5 -93.5t122.5 -33.5q148 0 205 127h70zM460 1815h-49q17 84 69 140t120 56q32 0 48.5 -6t28 -11t58.5 -32l65 -33q17 -4 27 -7t22 -5q19 0 37.5 10.5t27.5 23.5t18.5 33.5t15.5 39.5h53q-21 -88 -66 -144q-53 -65 -127 -65
q-45 0 -84 18q-30 19 -47 27q-26 14 -57 29.5t-57 15.5l-41 -8q-23 -9 -36 -28.5t-26 -53.5z" />
    <glyph glyph-name=".notdef.051" unicode="&#x1eb5;" 
d="M848 643v-475l-4 -29q0 -41 10 -59.5t43 -18.5l66 13v-45q-27 -15 -62 -21l-74 -8q-59 0 -95 28.5t-44 98.5l-16 -21q-131 -131 -303 -131q-115 0 -195 71t-80 183q0 121 71 187.5t310 107.5q105 17 137 27q80 27 80 108q0 115 -61.5 178.5t-179.5 63.5q-101 0 -172 -53
q-58 -41 -70 -90h-25v114q80 56 160 85.5t172 29.5q332 0 332 -344zM684 205v299l-74 -12q-182 -37 -225 -58q-123 -55 -123 -176q0 -96 52.5 -144t148.5 -48q43 0 89 22.5t75 54.5q16 13 36.5 33.5t20.5 28.5zM798 1331q-23 -112 -93.5 -176.5t-193.5 -64.5
q-109 0 -181.5 69.5t-88.5 171.5h77q29 -59 82.5 -93t122.5 -34q148 0 205 127h70zM276 1410h-49q17 84 69 140t120 56q32 0 48.5 -6t28 -11t58.5 -32l65 -33q17 -4 27 -7t22 -5q19 0 37.5 10.5t27.5 23.5t18.5 33.5t15.5 39.5h53q-21 -88 -66 -144q-53 -65 -127 -65
q-45 0 -84 18q-30 19 -47 27q-26 14 -57 29.5t-57 15.5l-41 -8q-23 -9 -36 -28.5t-26 -53.5z" />
    <glyph glyph-name=".notdef.122" unicode="&#x1eb6;" horiz-adv-x="1376" 
d="M721 1425l614 -1433q-22 2 -51 5t-55 3q-31 0 -61.5 -3t-49.5 -5q-96 289 -213 557h-520q-86 -211 -131 -335t-74 -222q-28 6 -40.5 7t-33.5 1q-20 0 -40.5 -3t-32.5 -5l639 1433h49zM872 635l-225 524l-225 -524h450zM982 1736q-23 -113 -93.5 -177.5t-193.5 -64.5
q-108 0 -181 69.5t-89 172.5h78q28 -60 81.5 -93.5t122.5 -33.5q148 0 205 127h70zM646 -309q-37 0 -65.5 28.5t-28.5 65.5t28.5 65.5t65.5 28.5q39 0 66.5 -27.5t27.5 -66.5q0 -37 -28.5 -65.5t-65.5 -28.5z" />
    <glyph glyph-name=".notdef.050" unicode="&#x1eb7;" 
d="M848 643v-475l-4 -29q0 -41 10 -59.5t43 -18.5l66 13v-45q-27 -15 -62 -21l-74 -8q-59 0 -95 28.5t-44 98.5l-16 -21q-131 -131 -303 -131q-115 0 -195 71t-80 183q0 121 71 187.5t310 107.5q105 17 137 27q80 27 80 108q0 115 -61.5 178.5t-179.5 63.5q-101 0 -172 -53
q-58 -41 -70 -90h-25v114q80 56 160 85.5t172 29.5q332 0 332 -344zM684 205v299l-74 -12q-182 -37 -225 -58q-123 -55 -123 -176q0 -96 52.5 -144t148.5 -48q43 0 89 22.5t75 54.5q16 13 36.5 33.5t20.5 28.5zM798 1331q-23 -112 -93.5 -176.5t-193.5 -64.5
q-109 0 -181.5 69.5t-88.5 171.5h77q29 -59 82.5 -93t122.5 -34q148 0 205 127h70zM478 -309q-37 0 -65.5 28.5t-28.5 65.5t28.5 65.5t65.5 28.5q39 0 66.5 -27.5t27.5 -66.5q0 -37 -28.5 -65.5t-65.5 -28.5z" />
    <glyph glyph-name=".notdef.127" unicode="&#x1eb8;" horiz-adv-x="1290" 
d="M184 1397h910l-4 -62l4 -61q-39 8 -91.5 14t-93.5 6l-204 4h-340v-512h499q31 0 92.5 4.5t92.5 4.5q-9 -33 -9 -54l9 -57q-31 0 -92.5 6t-92.5 6h-499v-598l86 -4q118 0 221.5 3t245.5 9q55 0 106 6.5t82 10.5l-4 -62l4 -61h-922v1397zM646 -309q-37 0 -65.5 28.5
t-28.5 65.5t28.5 65.5t65.5 28.5q39 0 66.5 -27.5t27.5 -66.5q0 -37 -28.5 -65.5t-65.5 -28.5z" />
    <glyph glyph-name=".notdef.045" unicode="&#x1eb9;" 
d="M909 205l-4 -107q-80 -57 -169 -90t-183 -33q-217 0 -350 135.5t-133 372.5q0 222 118 359q127 145 353 145q172 0 286 -113q127 -124 127 -346v-45q-71 0 -238 4.5t-175 4.5h-291l-4 -41q0 -164 95 -274.5t265 -110.5q92 0 182 49q58 30 121 90zM250 565h545
q0 156 -52 246q-63 111 -202 111q-135 0 -217 -113q-74 -102 -74 -244zM497 -309q-37 0 -65.5 28.5t-28.5 65.5t28.5 65.5t65.5 28.5q39 0 66.5 -27.5t27.5 -66.5q0 -37 -28.5 -65.5t-65.5 -28.5z" />
    <glyph glyph-name=".notdef.125" unicode="&#x1eba;" horiz-adv-x="1290" 
d="M184 1397h910l-4 -62l4 -61q-39 8 -91.5 14t-93.5 6l-204 4h-340v-512h499q31 0 92.5 4.5t92.5 4.5q-9 -33 -9 -54l9 -57q-31 0 -92.5 6t-92.5 6h-499v-598l86 -4q118 0 221.5 3t245.5 9q55 0 106 6.5t82 10.5l-4 -62l4 -61h-922v1397zM459 1859l20 55q7 16 25 31
q16 20 65.5 38.5t98.5 18.5q37 0 51 -3t54 -16.5t59 -37.5q49 -50 49 -119q0 -25 -15.5 -57.5t-62.5 -81.5l-51 -39l-39 -27q-17 -16 -20 -26.5t-5 -16.5l-4 -72h-53v62q0 18 5 43.5t21 50.5l72 94l19 39q10 31 14 64q0 73 -98 86q-54 -9 -74 -37q12 -25 16 -49
q0 -31 -17 -52.5t-52 -25.5q-31 0 -54.5 23.5t-23.5 54.5z" />
    <glyph glyph-name=".notdef.047" unicode="&#x1ebb;" 
d="M909 205l-4 -107q-80 -57 -169 -90t-183 -33q-217 0 -350 135.5t-133 372.5q0 222 118 359q127 145 353 145q172 0 286 -113q127 -124 127 -346v-45q-71 0 -238 4.5t-175 4.5h-291l-4 -41q0 -164 95 -274.5t265 -110.5q92 0 182 49q58 30 121 90zM250 565h545
q0 156 -52 246q-63 111 -202 111q-135 0 -217 -113q-74 -102 -74 -244zM340 1409l20 55q7 16 25 31q16 20 65.5 38.5t98.5 18.5q37 0 51 -3t54 -16.5t59 -37.5q49 -50 49 -119q0 -25 -15.5 -57.5t-62.5 -81.5l-51 -39l-39 -27q-17 -16 -20 -26.5t-5 -16.5l-4 -72h-53v62
q0 18 5 43.5t21 50.5l72 94l19 39q10 31 14 64q0 73 -98 86q-54 -9 -74 -37q12 -25 16 -49q0 -31 -17 -52.5t-52 -25.5q-31 0 -54.5 23.5t-23.5 54.5z" />
    <glyph glyph-name=".notdef.126" unicode="&#x1ebc;" horiz-adv-x="1290" 
d="M184 1397h910l-4 -62l4 -61q-39 8 -91.5 14t-93.5 6l-204 4h-340v-512h499q31 0 92.5 4.5t92.5 4.5q-9 -33 -9 -54l9 -57q-31 0 -92.5 6t-92.5 6h-499v-598l86 -4q118 0 221.5 3t245.5 9q55 0 106 6.5t82 10.5l-4 -62l4 -61h-922v1397zM418 1565h-49q17 84 69 140t120 56
q32 0 48.5 -6t28 -11t58.5 -32l65 -33q17 -4 27 -7t22 -5q19 0 37.5 10.5t27.5 23.5t18.5 33.5t15.5 39.5h53q-21 -88 -66 -144q-53 -65 -127 -65q-45 0 -84 18q-30 19 -47 27q-26 14 -57 29.5t-57 15.5l-41 -8q-23 -9 -36 -28.5t-26 -53.5z" />
    <glyph glyph-name=".notdef.046" unicode="&#x1ebd;" 
d="M909 205l-4 -107q-80 -57 -169 -90t-183 -33q-217 0 -350 135.5t-133 372.5q0 222 118 359q127 145 353 145q172 0 286 -113q127 -124 127 -346v-45q-71 0 -238 4.5t-175 4.5h-291l-4 -41q0 -164 95 -274.5t265 -110.5q92 0 182 49q58 30 121 90zM250 565h545
q0 156 -52 246q-63 111 -202 111q-135 0 -217 -113q-74 -102 -74 -244zM301 1143h-53q16 82 69.5 139t123.5 57q32 0 45 -4l86 -45q34 -20 69 -33q8 -2 23.5 -7t21.5 -5q19 0 37.5 10.5t28.5 25.5t20.5 36.5t16.5 34.5h49q-16 -86 -64 -144q-53 -65 -129 -65q-30 0 -43.5 4
t-87.5 41q-39 20 -57 29q-35 16 -57 16l-41 -8q-21 -8 -36.5 -32t-21.5 -50z" />
    <glyph glyph-name=".notdef.130" unicode="&#x1ebe;" horiz-adv-x="1290" 
d="M184 1397h910l-4 -62l4 -61q-39 8 -91.5 14t-93.5 6l-204 4h-340v-512h499q31 0 92.5 4.5t92.5 4.5q-9 -33 -9 -54l9 -57q-31 0 -92.5 6t-92.5 6h-499v-598l86 -4q118 0 221.5 3t245.5 9q55 0 106 6.5t82 10.5l-4 -62l4 -61h-922v1397zM404 1511h-70l254 344h111
l254 -344h-70l-237 218zM1236 1991l-323 -201h-70l258 258l49 49q31 21 62 41h16q47 0 62 -45l4 -33q0 -16 -8 -24q-4 -12 -22.5 -25.5t-27.5 -19.5z" />
    <glyph glyph-name=".notdef.042" unicode="&#x1ebf;" 
d="M909 205l-4 -107q-80 -57 -169 -90t-183 -33q-217 0 -350 135.5t-133 372.5q0 222 118 359q127 145 353 145q172 0 286 -113q127 -124 127 -346v-45q-71 0 -238 4.5t-175 4.5h-291l-4 -41q0 -164 95 -274.5t265 -110.5q92 0 182 49q58 30 121 90zM250 565h545
q0 156 -52 246q-63 111 -202 111q-135 0 -217 -113q-74 -102 -74 -244zM299 1069h-69l254 344h110l254 -344h-69l-238 217zM1131 1549l-323 -201h-70l258 258l49 49q31 21 62 41h16q47 0 62 -45l4 -33q0 -16 -8 -24q-4 -12 -22.5 -25.5t-27.5 -19.5z" />
    <glyph glyph-name=".notdef.129" unicode="&#x1ec0;" horiz-adv-x="1290" 
d="M184 1397h910l-4 -62l4 -61q-39 8 -91.5 14t-93.5 6l-204 4h-340v-512h499q31 0 92.5 4.5t92.5 4.5q-9 -33 -9 -54l9 -57q-31 0 -92.5 6t-92.5 6h-499v-598l86 -4q118 0 221.5 3t245.5 9q55 0 106 6.5t82 10.5l-4 -62l4 -61h-922v1397zM404 1511h-70l254 344h111
l254 -344h-70l-237 218zM1126 1791h-69l-324 201q-25 22 -49 45q-4 8 -4 33v24q14 41 69 41h17l24 -12q21 -14 43.5 -38t34.5 -36z" />
    <glyph glyph-name=".notdef.043" unicode="&#x1ec1;" 
d="M909 205l-4 -107q-80 -57 -169 -90t-183 -33q-217 0 -350 135.5t-133 372.5q0 222 118 359q127 145 353 145q172 0 286 -113q127 -124 127 -346v-45q-71 0 -238 4.5t-175 4.5h-291l-4 -41q0 -164 95 -274.5t265 -110.5q92 0 182 49q58 30 121 90zM250 565h545
q0 156 -52 246q-63 111 -202 111q-135 0 -217 -113q-74 -102 -74 -244zM299 1069h-69l254 344h110l254 -344h-69l-238 217zM1022 1349h-69l-324 201q-25 22 -49 45q-4 8 -4 33v24q14 41 69 41h17l24 -12q21 -14 43.5 -38t34.5 -36z" />
    <glyph glyph-name=".notdef.131" unicode="&#x1ec2;" horiz-adv-x="1290" 
d="M184 1397h910l-4 -62l4 -61q-39 8 -91.5 14t-93.5 6l-204 4h-340v-512h499q31 0 92.5 4.5t92.5 4.5q-9 -33 -9 -54l9 -57q-31 0 -92.5 6t-92.5 6h-499v-598l86 -4q118 0 221.5 3t245.5 9q55 0 106 6.5t82 10.5l-4 -62l4 -61h-922v1397zM404 1511h-70l254 344h111
l254 -344h-70l-237 218zM725 2119l20 55q7 16 25 31q16 20 65.5 38.5t98.5 18.5q37 0 51 -3t54 -16.5t59 -37.5q49 -50 49 -119q0 -25 -15.5 -57.5t-62.5 -81.5l-51 -39l-39 -27q-17 -16 -20 -26.5t-5 -16.5l-4 -72h-53v62q0 18 5 43.5t21 50.5l72 94l19 39q10 31 14 64
q0 73 -98 86q-54 -9 -74 -37q12 -25 16 -49q0 -31 -17 -52.5t-52 -25.5q-31 0 -54.5 23.5t-23.5 54.5z" />
    <glyph glyph-name=".notdef.041" unicode="&#x1ec3;" 
d="M909 205l-4 -107q-80 -57 -169 -90t-183 -33q-217 0 -350 135.5t-133 372.5q0 222 118 359q127 145 353 145q172 0 286 -113q127 -124 127 -346v-45q-71 0 -238 4.5t-175 4.5h-291l-4 -41q0 -164 95 -274.5t265 -110.5q92 0 182 49q58 30 121 90zM250 565h545
q0 156 -52 246q-63 111 -202 111q-135 0 -217 -113q-74 -102 -74 -244zM299 1069h-69l254 344h110l254 -344h-69l-238 217zM620 1677l20 55q7 16 25 31q16 20 65.5 38.5t98.5 18.5q37 0 51 -3t54 -16.5t59 -37.5q49 -50 49 -119q0 -25 -15.5 -57.5t-62.5 -81.5l-51 -39
l-39 -27q-17 -16 -20 -26.5t-5 -16.5l-4 -72h-53v62q0 18 5 43.5t21 50.5l72 94l19 39q10 31 14 64q0 73 -98 86q-54 -9 -74 -37q12 -25 16 -49q0 -31 -17 -52.5t-52 -25.5q-31 0 -54.5 23.5t-23.5 54.5z" />
    <glyph glyph-name=".notdef.132" unicode="&#x1ec4;" horiz-adv-x="1290" 
d="M184 1397h910l-4 -62l4 -61q-39 8 -91.5 14t-93.5 6l-204 4h-340v-512h499q31 0 92.5 4.5t92.5 4.5q-9 -33 -9 -54l9 -57q-31 0 -92.5 6t-92.5 6h-499v-598l86 -4q118 0 221.5 3t245.5 9q55 0 106 6.5t82 10.5l-4 -62l4 -61h-922v1397zM404 1511h-70l254 344h111
l254 -344h-70l-237 218zM402 1921h-49q17 84 69 140t120 56q32 0 48.5 -6t28 -11t58.5 -32l65 -33q17 -4 27 -7t22 -5q19 0 37.5 10.5t27.5 23.5t18.5 33.5t15.5 39.5h53q-21 -88 -66 -144q-53 -65 -127 -65q-45 0 -84 18q-30 19 -47 27q-26 14 -57 29.5t-57 15.5l-41 -8
q-23 -9 -36 -28.5t-26 -53.5z" />
    <glyph glyph-name=".notdef.040" unicode="&#x1ec5;" 
d="M909 205l-4 -107q-80 -57 -169 -90t-183 -33q-217 0 -350 135.5t-133 372.5q0 222 118 359q127 145 353 145q172 0 286 -113q127 -124 127 -346v-45q-71 0 -238 4.5t-175 4.5h-291l-4 -41q0 -164 95 -274.5t265 -110.5q92 0 182 49q58 30 121 90zM250 565h545
q0 156 -52 246q-63 111 -202 111q-135 0 -217 -113q-74 -102 -74 -244zM299 1069h-69l254 344h110l254 -344h-69l-238 217zM297 1479h-49q17 84 69 140t120 56q32 0 48.5 -6t28 -11t58.5 -32l65 -33q17 -4 27 -7t22 -5q19 0 37.5 10.5t27.5 23.5t18.5 33.5t15.5 39.5h53
q-21 -88 -66 -144q-53 -65 -127 -65q-45 0 -84 18q-30 19 -47 27q-26 14 -57 29.5t-57 15.5l-41 -8q-23 -9 -36 -28.5t-26 -53.5z" />
    <glyph glyph-name=".notdef.105" unicode="&#x1ec6;" horiz-adv-x="1290" 
d="M184 1397h910l-4 -62l4 -61q-39 8 -91.5 14t-93.5 6l-204 4h-340v-512h499q31 0 92.5 4.5t92.5 4.5q-9 -33 -9 -54l9 -57q-31 0 -92.5 6t-92.5 6h-499v-598l86 -4q118 0 221.5 3t245.5 9q55 0 106 6.5t82 10.5l-4 -62l4 -61h-922v1397zM404 1511h-70l254 344h111
l254 -344h-70l-237 218zM646 -309q-37 0 -65.5 28.5t-28.5 65.5t28.5 65.5t65.5 28.5q39 0 66.5 -27.5t27.5 -66.5q0 -37 -28.5 -65.5t-65.5 -28.5z" />
    <glyph glyph-name=".notdef.039" unicode="&#x1ec7;" 
d="M909 205l-4 -107q-80 -57 -169 -90t-183 -33q-217 0 -350 135.5t-133 372.5q0 222 118 359q127 145 353 145q172 0 286 -113q127 -124 127 -346v-45q-71 0 -238 4.5t-175 4.5h-291l-4 -41q0 -164 95 -274.5t265 -110.5q92 0 182 49q58 30 121 90zM250 565h545
q0 156 -52 246q-63 111 -202 111q-135 0 -217 -113q-74 -102 -74 -244zM299 1069h-69l254 344h110l254 -344h-69l-238 217zM497 -309q-37 0 -65.5 28.5t-28.5 65.5t28.5 65.5t65.5 28.5q39 0 66.5 -27.5t27.5 -66.5q0 -37 -28.5 -65.5t-65.5 -28.5z" />
    <glyph glyph-name=".notdef.102" unicode="&#x1ec8;" horiz-adv-x="590" 
d="M197 -8v1405q20 -4 40.5 -6t49.5 -2q35 0 56.5 4t33.5 4v-1405q-25 4 -45.5 6t-44.5 2q-25 0 -50.5 -3t-39.5 -5zM94 1857l20 55q7 16 25 31q16 20 65.5 38.5t98.5 18.5q37 0 51 -3t54 -16.5t59 -37.5q49 -50 49 -119q0 -25 -15.5 -57.5t-62.5 -81.5l-51 -39l-39 -27
q-17 -16 -20 -26.5t-5 -16.5l-4 -72h-53v62q0 18 5 43.5t21 50.5l72 94l19 39q10 31 14 64q0 73 -98 86q-54 -9 -74 -37q12 -25 16 -49q0 -31 -17 -52.5t-52 -25.5q-31 0 -54.5 23.5t-23.5 54.5z" />
    <glyph glyph-name=".notdef.036" unicode="&#x1ec9;" horiz-adv-x="590" 
d="M369 975v-983l-82 8q-23 0 -35 -1t-47 -7v983q31 -4 43 -6t39 -2zM92 1409l20 55q7 16 25 31q16 20 65.5 38.5t98.5 18.5q37 0 51 -3t54 -16.5t59 -37.5q49 -50 49 -119q0 -25 -15.5 -57.5t-62.5 -81.5l-51 -39l-39 -27q-17 -16 -20 -26.5t-5 -16.5l-4 -72h-53v62
q0 18 5 43.5t21 50.5l72 94l19 39q10 31 14 64q0 73 -98 86q-54 -9 -74 -37q12 -25 16 -49q0 -31 -17 -52.5t-52 -25.5q-31 0 -54.5 23.5t-23.5 54.5z" />
    <glyph glyph-name=".notdef.100" unicode="&#x1eca;" horiz-adv-x="590" 
d="M197 -8v1405q20 -4 40.5 -6t49.5 -2q35 0 56.5 4t33.5 4v-1405q-25 4 -45.5 6t-44.5 2q-25 0 -50.5 -3t-39.5 -5zM285 -309q-37 0 -65.5 28.5t-28.5 65.5t28.5 65.5t65.5 28.5q39 0 66.5 -27.5t27.5 -66.5q0 -37 -28.5 -65.5t-65.5 -28.5z" />
    <glyph glyph-name=".notdef.034" unicode="&#x1ecb;" horiz-adv-x="590" 
d="M369 975v-983l-82 8q-23 0 -35 -1t-47 -7v983q31 -4 43 -6t39 -2zM389 1323q0 -41 -30.5 -71.5t-71.5 -30.5q-43 0 -75 29.5t-32 72.5t32 75t75 32q41 0 71.5 -31t30.5 -76zM282 -309q-37 0 -65.5 28.5t-28.5 65.5t28.5 65.5t65.5 28.5q39 0 66.5 -27.5t27.5 -66.5
q0 -37 -28.5 -65.5t-65.5 -28.5z" />
    <glyph glyph-name=".notdef.095" unicode="&#x1ecc;" horiz-adv-x="1376" 
d="M1155 709q0 147 -22.5 249.5t-87 199.5t-158.5 149.5t-199 52.5q-227 0 -357 -187.5t-130 -500.5q0 -301 137 -473q129 -162 334 -162q235 0 372 233q111 187 111 406v33zM664 -33q-285 0 -460 200t-175 529q0 330 181 529.5t458 199.5q272 0 452 -165q207 -191 207 -535
q0 -340 -184.5 -549t-478.5 -209zM661 -309q-37 0 -65.5 28.5t-28.5 65.5t28.5 65.5t65.5 28.5q39 0 66.5 -27.5t27.5 -66.5q0 -37 -28.5 -65.5t-65.5 -28.5z" />
    <glyph glyph-name=".notdef.029" unicode="&#x1ecd;" 
d="M66 492q0 219 132 357t334 138q193 0 312 -137t119 -363q0 -211 -117 -354q-129 -158 -346 -158q-185 0 -307 127q-132 136 -132 344zM528 922q-157 0 -237 -148q-66 -121 -66 -311q0 -174 66 -287q78 -135 225 -135q143 0 221 166q62 131 62 289q0 168 -56 280
q-71 146 -215 146zM500 -309q-37 0 -65.5 28.5t-28.5 65.5t28.5 65.5t65.5 28.5q39 0 66.5 -27.5t27.5 -66.5q0 -37 -28.5 -65.5t-65.5 -28.5z" />
    <glyph glyph-name=".notdef.097" unicode="&#x1ece;" horiz-adv-x="1376" 
d="M1155 709q0 147 -22.5 249.5t-87 199.5t-158.5 149.5t-199 52.5q-227 0 -357 -187.5t-130 -500.5q0 -301 137 -473q129 -162 334 -162q235 0 372 233q111 187 111 406v33zM664 -33q-285 0 -460 200t-175 529q0 330 181 529.5t458 199.5q272 0 452 -165q207 -191 207 -535
q0 -340 -184.5 -549t-478.5 -209zM498 1859l20 55q7 16 25 31q16 20 65.5 38.5t98.5 18.5q37 0 51 -3t54 -16.5t59 -37.5q49 -50 49 -119q0 -25 -15.5 -57.5t-62.5 -81.5l-51 -39l-39 -27q-17 -16 -20 -26.5t-5 -16.5l-4 -72h-53v62q0 18 5 43.5t21 50.5l72 94l19 39
q10 31 14 64q0 73 -98 86q-54 -9 -74 -37q12 -25 16 -49q0 -31 -17 -52.5t-52 -25.5q-31 0 -54.5 23.5t-23.5 54.5z" />
    <glyph glyph-name=".notdef.031" unicode="&#x1ecf;" 
d="M66 492q0 219 132 357t334 138q193 0 312 -137t119 -363q0 -211 -117 -354q-129 -158 -346 -158q-185 0 -307 127q-132 136 -132 344zM528 922q-157 0 -237 -148q-66 -121 -66 -311q0 -174 66 -287q78 -135 225 -135q143 0 221 166q62 131 62 289q0 168 -56 280
q-71 146 -215 146zM332 1409l20 55q7 16 25 31q16 20 65.5 38.5t98.5 18.5q37 0 51 -3t54 -16.5t59 -37.5q49 -50 49 -119q0 -25 -15.5 -57.5t-62.5 -81.5l-51 -39l-39 -27q-17 -16 -20 -26.5t-5 -16.5l-4 -72h-53v62q0 18 5 43.5t21 50.5l72 94l19 39q10 31 14 64
q0 73 -98 86q-54 -9 -74 -37q12 -25 16 -49q0 -31 -17 -52.5t-52 -25.5q-31 0 -54.5 23.5t-23.5 54.5z" />
    <glyph glyph-name=".notdef.092" unicode="&#x1ed0;" horiz-adv-x="1376" 
d="M1155 709q0 147 -22.5 249.5t-87 199.5t-158.5 149.5t-199 52.5q-227 0 -357 -187.5t-130 -500.5q0 -301 137 -473q129 -162 334 -162q235 0 372 233q111 187 111 406v33zM664 -33q-285 0 -460 200t-175 529q0 330 181 529.5t458 199.5q272 0 452 -165q207 -191 207 -535
q0 -340 -184.5 -549t-478.5 -209zM446 1511h-70l254 344h111l254 -344h-70l-237 218zM1279 1991l-323 -201h-70l258 258l49 49q31 21 62 41h16q47 0 62 -45l4 -33q0 -16 -8 -24q-4 -12 -22.5 -25.5t-27.5 -19.5z" />
    <glyph glyph-name=".notdef.026" unicode="&#x1ed1;" 
d="M66 492q0 219 132 357t334 138q193 0 312 -137t119 -363q0 -211 -117 -354q-129 -158 -346 -158q-185 0 -307 127q-132 136 -132 344zM528 922q-157 0 -237 -148q-66 -121 -66 -311q0 -174 66 -287q78 -135 225 -135q143 0 221 166q62 131 62 289q0 168 -56 280
q-71 146 -215 146zM291 1069h-69l254 344h110l254 -344h-69l-238 217zM1123 1549l-323 -201h-70l258 258l49 49q31 21 62 41h16q47 0 62 -45l4 -33q0 -16 -8 -24q-4 -12 -22.5 -25.5t-27.5 -19.5z" />
    <glyph glyph-name=".notdef.093" unicode="&#x1ed2;" horiz-adv-x="1376" 
d="M1155 709q0 147 -22.5 249.5t-87 199.5t-158.5 149.5t-199 52.5q-227 0 -357 -187.5t-130 -500.5q0 -301 137 -473q129 -162 334 -162q235 0 372 233q111 187 111 406v33zM664 -33q-285 0 -460 200t-175 529q0 330 181 529.5t458 199.5q272 0 452 -165q207 -191 207 -535
q0 -340 -184.5 -549t-478.5 -209zM446 1511h-70l254 344h111l254 -344h-70l-237 218zM1168 1791h-69l-324 201q-25 22 -49 45q-4 8 -4 33v24q14 41 69 41h17l24 -12q21 -14 43.5 -38t34.5 -36z" />
    <glyph glyph-name=".notdef.027" unicode="&#x1ed3;" 
d="M66 492q0 219 132 357t334 138q193 0 312 -137t119 -363q0 -211 -117 -354q-129 -158 -346 -158q-185 0 -307 127q-132 136 -132 344zM528 922q-157 0 -237 -148q-66 -121 -66 -311q0 -174 66 -287q78 -135 225 -135q143 0 221 166q62 131 62 289q0 168 -56 280
q-71 146 -215 146zM291 1069h-69l254 344h110l254 -344h-69l-238 217zM1014 1349h-69l-324 201q-25 22 -49 45q-4 8 -4 33v24q14 41 69 41h17l24 -12q21 -14 43.5 -38t34.5 -36z" />
    <glyph glyph-name=".notdef.091" unicode="&#x1ed4;" horiz-adv-x="1376" 
d="M1155 709q0 147 -22.5 249.5t-87 199.5t-158.5 149.5t-199 52.5q-227 0 -357 -187.5t-130 -500.5q0 -301 137 -473q129 -162 334 -162q235 0 372 233q111 187 111 406v33zM664 -33q-285 0 -460 200t-175 529q0 330 181 529.5t458 199.5q272 0 452 -165q207 -191 207 -535
q0 -340 -184.5 -549t-478.5 -209zM446 1511h-70l254 344h111l254 -344h-70l-237 218zM767 2119l20 55q7 16 25 31q16 20 65.5 38.5t98.5 18.5q37 0 51 -3t54 -16.5t59 -37.5q49 -50 49 -119q0 -25 -15.5 -57.5t-62.5 -81.5l-51 -39l-39 -27q-17 -16 -20 -26.5t-5 -16.5
l-4 -72h-53v62q0 18 5 43.5t21 50.5l72 94l19 39q10 31 14 64q0 73 -98 86q-54 -9 -74 -37q12 -25 16 -49q0 -31 -17 -52.5t-52 -25.5q-31 0 -54.5 23.5t-23.5 54.5z" />
    <glyph glyph-name=".notdef.025" unicode="&#x1ed5;" 
d="M66 492q0 219 132 357t334 138q193 0 312 -137t119 -363q0 -211 -117 -354q-129 -158 -346 -158q-185 0 -307 127q-132 136 -132 344zM528 922q-157 0 -237 -148q-66 -121 -66 -311q0 -174 66 -287q78 -135 225 -135q143 0 221 166q62 131 62 289q0 168 -56 280
q-71 146 -215 146zM291 1069h-69l254 344h110l254 -344h-69l-238 217zM612 1677l20 55q7 16 25 31q16 20 65.5 38.5t98.5 18.5q37 0 51 -3t54 -16.5t59 -37.5q49 -50 49 -119q0 -25 -15.5 -57.5t-62.5 -81.5l-51 -39l-39 -27q-17 -16 -20 -26.5t-5 -16.5l-4 -72h-53v62
q0 18 5 43.5t21 50.5l72 94l19 39q10 31 14 64q0 73 -98 86q-54 -9 -74 -37q12 -25 16 -49q0 -31 -17 -52.5t-52 -25.5q-31 0 -54.5 23.5t-23.5 54.5z" />
    <glyph glyph-name=".notdef.090" unicode="&#x1ed6;" horiz-adv-x="1376" 
d="M1155 709q0 147 -22.5 249.5t-87 199.5t-158.5 149.5t-199 52.5q-227 0 -357 -187.5t-130 -500.5q0 -301 137 -473q129 -162 334 -162q235 0 372 233q111 187 111 406v33zM664 -33q-285 0 -460 200t-175 529q0 330 181 529.5t458 199.5q272 0 452 -165q207 -191 207 -535
q0 -340 -184.5 -549t-478.5 -209zM446 1511h-70l254 344h111l254 -344h-70l-237 218zM444 1921h-49q17 84 69 140t120 56q32 0 48.5 -6t28 -11t58.5 -32l65 -33q17 -4 27 -7t22 -5q19 0 37.5 10.5t27.5 23.5t18.5 33.5t15.5 39.5h53q-21 -88 -66 -144q-53 -65 -127 -65
q-45 0 -84 18q-30 19 -47 27q-26 14 -57 29.5t-57 15.5l-41 -8q-23 -9 -36 -28.5t-26 -53.5z" />
    <glyph glyph-name=".notdef.024" unicode="&#x1ed7;" 
d="M66 492q0 219 132 357t334 138q193 0 312 -137t119 -363q0 -211 -117 -354q-129 -158 -346 -158q-185 0 -307 127q-132 136 -132 344zM528 922q-157 0 -237 -148q-66 -121 -66 -311q0 -174 66 -287q78 -135 225 -135q143 0 221 166q62 131 62 289q0 168 -56 280
q-71 146 -215 146zM291 1069h-69l254 344h110l254 -344h-69l-238 217zM289 1479h-49q17 84 69 140t120 56q32 0 48.5 -6t28 -11t58.5 -32l65 -33q17 -4 27 -7t22 -5q19 0 37.5 10.5t27.5 23.5t18.5 33.5t15.5 39.5h53q-21 -88 -66 -144q-53 -65 -127 -65q-45 0 -84 18
q-30 19 -47 27q-26 14 -57 29.5t-57 15.5l-41 -8q-23 -9 -36 -28.5t-26 -53.5z" />
    <glyph glyph-name=".notdef.089" unicode="&#x1ed8;" horiz-adv-x="1376" 
d="M1155 709q0 147 -22.5 249.5t-87 199.5t-158.5 149.5t-199 52.5q-227 0 -357 -187.5t-130 -500.5q0 -301 137 -473q129 -162 334 -162q235 0 372 233q111 187 111 406v33zM664 -33q-285 0 -460 200t-175 529q0 330 181 529.5t458 199.5q272 0 452 -165q207 -191 207 -535
q0 -340 -184.5 -549t-478.5 -209zM446 1511h-70l254 344h111l254 -344h-70l-237 218zM661 -309q-37 0 -65.5 28.5t-28.5 65.5t28.5 65.5t65.5 28.5q39 0 66.5 -27.5t27.5 -66.5q0 -37 -28.5 -65.5t-65.5 -28.5z" />
    <glyph glyph-name=".notdef.023" unicode="&#x1ed9;" 
d="M66 492q0 219 132 357t334 138q193 0 312 -137t119 -363q0 -211 -117 -354q-129 -158 -346 -158q-185 0 -307 127q-132 136 -132 344zM528 922q-157 0 -237 -148q-66 -121 -66 -311q0 -174 66 -287q78 -135 225 -135q143 0 221 166q62 131 62 289q0 168 -56 280
q-71 146 -215 146zM291 1069h-69l254 344h110l254 -344h-69l-238 217zM500 -309q-37 0 -65.5 28.5t-28.5 65.5t28.5 65.5t65.5 28.5q39 0 66.5 -27.5t27.5 -66.5q0 -37 -28.5 -65.5t-65.5 -28.5z" />
    <glyph glyph-name=".notdef.075" unicode="&#x1eda;" horiz-adv-x="1376" 
d="M1094 1278q24 0 54 11t44 31.5t14 55.5q0 39 -24 72q-6 10 -37 12t-33 8v123l57 -8l103 4h49l-4 -28v-107q0 -45 -14.5 -97t-30.5 -71q-41 -47 -121 -59q82 -88 129 -215t47 -285q0 -340 -184.5 -549t-478.5 -209q-285 0 -460 200t-175 529q0 330 181 529.5t458 199.5
q112 0 224 -37.5t202 -109.5zM1155 709q0 147 -22.5 249.5t-87 199.5t-158.5 149.5t-199 52.5q-227 0 -357 -187.5t-130 -500.5q0 -301 137 -473q129 -162 334 -162q235 0 372 233q111 187 111 406v33zM866 1700l-323 -201h-70l258 258l49 49q31 21 62 41h16q47 0 62 -45
l4 -33q0 -16 -8 -24q-4 -12 -22.5 -25.5t-27.5 -19.5z" />
    <glyph glyph-name=".notdef.009" unicode="&#x1edb;" 
d="M823 864q23 4 45.5 12.5t36 27t13.5 50.5q0 15 -7.5 26t-17.5 21q-6 11 -37 13t-33 8v123l62 -8h135l-4 -33v-78q0 -59 -6 -92t-39 -70q-39 -45 -99 -57q91 -129 91 -320q0 -211 -117 -354q-129 -158 -346 -158q-185 0 -307 127q-132 136 -132 344l5 46q0 219 132 357
t334 138q168 0 291 -123zM528 922q-157 0 -237 -148q-66 -121 -66 -311q0 -174 66 -287q78 -135 225 -135q143 0 221 166q62 131 62 289q0 168 -56 280q-71 146 -215 146zM715 1290l-324 -200h-69l258 258l49 49q31 20 61 41h17q47 0 61 -45l4 -33q0 -17 -8 -25
q-4 -12 -22.5 -25.5t-26.5 -19.5z" />
    <glyph glyph-name=".notdef.076" unicode="&#x1edc;" horiz-adv-x="1376" 
d="M1094 1278q24 0 54 11t44 31.5t14 55.5q0 39 -24 72q-6 10 -37 12t-33 8v123l57 -8l103 4h49l-4 -28v-107q0 -45 -14.5 -97t-30.5 -71q-41 -47 -121 -59q82 -88 129 -215t47 -285q0 -340 -184.5 -549t-478.5 -209q-285 0 -460 200t-175 529q0 330 181 529.5t458 199.5
q112 0 224 -37.5t202 -109.5zM1155 709q0 147 -22.5 249.5t-87 199.5t-158.5 149.5t-199 52.5q-227 0 -357 -187.5t-130 -500.5q0 -301 137 -473q129 -162 334 -162q235 0 372 233q111 187 111 406v33zM870 1499h-69l-324 201q-25 22 -49 45q-4 8 -4 33v24q14 41 69 41h17
l24 -12q21 -14 43.5 -38t34.5 -36z" />
    <glyph glyph-name=".notdef.010" unicode="&#x1edd;" 
d="M823 864q23 4 45.5 12.5t36 27t13.5 50.5q0 15 -7.5 26t-17.5 21q-6 11 -37 13t-33 8v123l62 -8h135l-4 -33v-78q0 -59 -6 -92t-39 -70q-39 -45 -99 -57q91 -129 91 -320q0 -211 -117 -354q-129 -158 -346 -158q-185 0 -307 127q-132 136 -132 344l5 46q0 219 132 357
t334 138q168 0 291 -123zM528 922q-157 0 -237 -148q-66 -121 -66 -311q0 -174 66 -287q78 -135 225 -135q143 0 221 166q62 131 62 289q0 168 -56 280q-71 146 -215 146zM699 1090h-69l-324 200q-24 23 -49 45q-4 8 -4 33v25q14 41 70 41h16q12 -7 25 -13
q20 -14 42.5 -37.5t34.5 -35.5z" />
    <glyph glyph-name=".notdef.074" unicode="&#x1ede;" horiz-adv-x="1376" 
d="M1094 1278q24 0 54 11t44 31.5t14 55.5q0 39 -24 72q-6 10 -37 12t-33 8v123l57 -8l103 4h49l-4 -28v-107q0 -45 -14.5 -97t-30.5 -71q-41 -47 -121 -59q82 -88 129 -215t47 -285q0 -340 -184.5 -549t-478.5 -209q-285 0 -460 200t-175 529q0 330 181 529.5t458 199.5
q112 0 224 -37.5t202 -109.5zM1155 709q0 147 -22.5 249.5t-87 199.5t-158.5 149.5t-199 52.5q-227 0 -357 -187.5t-130 -500.5q0 -301 137 -473q129 -162 334 -162q235 0 372 233q111 187 111 406v33zM498 1859l20 55q7 16 25 31q16 20 65.5 38.5t98.5 18.5q37 0 51 -3
t54 -16.5t59 -37.5q49 -50 49 -119q0 -25 -15.5 -57.5t-62.5 -81.5l-51 -39l-39 -27q-17 -16 -20 -26.5t-5 -16.5l-4 -72h-53v62q0 18 5 43.5t21 50.5l72 94l19 39q10 31 14 64q0 73 -98 86q-54 -9 -74 -37q12 -25 16 -49q0 -31 -17 -52.5t-52 -25.5q-31 0 -54.5 23.5
t-23.5 54.5z" />
    <glyph glyph-name=".notdef.008" unicode="&#x1edf;" 
d="M823 864q23 4 45.5 12.5t36 27t13.5 50.5q0 15 -7.5 26t-17.5 21q-6 11 -37 13t-33 8v123l62 -8h135l-4 -33v-78q0 -59 -6 -92t-39 -70q-39 -45 -99 -57q91 -129 91 -320q0 -211 -117 -354q-129 -158 -346 -158q-185 0 -307 127q-132 136 -132 344l5 46q0 219 132 357
t334 138q168 0 291 -123zM528 922q-157 0 -237 -148q-66 -121 -66 -311q0 -174 66 -287q78 -135 225 -135q143 0 221 166q62 131 62 289q0 168 -56 280q-71 146 -215 146zM332 1409l20 55q7 16 25 31q16 20 65.5 38.5t98.5 18.5q37 0 51 -3t54 -16.5t59 -37.5
q49 -50 49 -119q0 -25 -15.5 -57.5t-62.5 -81.5l-51 -39l-39 -27q-17 -16 -20 -26.5t-5 -16.5l-4 -72h-53v62q0 18 5 43.5t21 50.5l72 94l19 39q10 31 14 64q0 73 -98 86q-54 -9 -74 -37q12 -25 16 -49q0 -31 -17 -52.5t-52 -25.5q-31 0 -54.5 23.5t-23.5 54.5z" />
    <glyph glyph-name=".notdef.073" unicode="&#x1ee0;" horiz-adv-x="1376" 
d="M1094 1278q24 0 54 11t44 31.5t14 55.5q0 39 -24 72q-6 10 -37 12t-33 8v123l57 -8l103 4h49l-4 -28v-107q0 -45 -14.5 -97t-30.5 -71q-41 -47 -121 -59q82 -88 129 -215t47 -285q0 -340 -184.5 -549t-478.5 -209q-285 0 -460 200t-175 529q0 330 181 529.5t458 199.5
q112 0 224 -37.5t202 -109.5zM1155 709q0 147 -22.5 249.5t-87 199.5t-158.5 149.5t-199 52.5q-227 0 -357 -187.5t-130 -500.5q0 -301 137 -473q129 -162 334 -162q235 0 372 233q111 187 111 406v33zM450 1565h-49q17 84 69 140t120 56q32 0 48.5 -6t28 -11t58.5 -32
l65 -33q17 -4 27 -7t22 -5q19 0 37.5 10.5t27.5 23.5t18.5 33.5t15.5 39.5h53q-21 -88 -66 -144q-53 -65 -127 -65q-45 0 -84 18q-30 19 -47 27q-26 14 -57 29.5t-57 15.5l-41 -8q-23 -9 -36 -28.5t-26 -53.5z" />
    <glyph glyph-name=".notdef.007" unicode="&#x1ee1;" 
d="M823 864q23 4 45.5 12.5t36 27t13.5 50.5q0 15 -7.5 26t-17.5 21q-6 11 -37 13t-33 8v123l62 -8h135l-4 -33v-78q0 -59 -6 -92t-39 -70q-39 -45 -99 -57q91 -129 91 -320q0 -211 -117 -354q-129 -158 -346 -158q-185 0 -307 127q-132 136 -132 344l5 46q0 219 132 357
t334 138q168 0 291 -123zM528 922q-157 0 -237 -148q-66 -121 -66 -311q0 -174 66 -287q78 -135 225 -135q143 0 221 166q62 131 62 289q0 168 -56 280q-71 146 -215 146zM287 1143h-53q16 82 69.5 139t123.5 57q32 0 45 -4l86 -45q34 -20 69 -33q8 -2 23.5 -7t21.5 -5
q19 0 37.5 10.5t28.5 25.5t20.5 36.5t16.5 34.5h49q-16 -86 -64 -144q-53 -65 -129 -65q-30 0 -43.5 4t-87.5 41q-39 20 -57 29q-35 16 -57 16l-41 -8q-21 -8 -36.5 -32t-21.5 -50z" />
    <glyph glyph-name=".notdef.072" unicode="&#x1ee2;" horiz-adv-x="1376" 
d="M1094 1278q24 0 54 11t44 31.5t14 55.5q0 39 -24 72q-6 10 -37 12t-33 8v123l57 -8l103 4h49l-4 -28v-107q0 -45 -14.5 -97t-30.5 -71q-41 -47 -121 -59q82 -88 129 -215t47 -285q0 -340 -184.5 -549t-478.5 -209q-285 0 -460 200t-175 529q0 330 181 529.5t458 199.5
q112 0 224 -37.5t202 -109.5zM1155 709q0 147 -22.5 249.5t-87 199.5t-158.5 149.5t-199 52.5q-227 0 -357 -187.5t-130 -500.5q0 -301 137 -473q129 -162 334 -162q235 0 372 233q111 187 111 406v33zM661 -309q-37 0 -65.5 28.5t-28.5 65.5t28.5 65.5t65.5 28.5
q39 0 66.5 -27.5t27.5 -66.5q0 -37 -28.5 -65.5t-65.5 -28.5z" />
    <glyph glyph-name=".notdef.006" unicode="&#x1ee3;" 
d="M823 864q23 4 45.5 12.5t36 27t13.5 50.5q0 15 -7.5 26t-17.5 21q-6 11 -37 13t-33 8v123l62 -8h135l-4 -33v-78q0 -59 -6 -92t-39 -70q-39 -45 -99 -57q91 -129 91 -320q0 -211 -117 -354q-129 -158 -346 -158q-185 0 -307 127q-132 136 -132 344l5 46q0 219 132 357
t334 138q168 0 291 -123zM528 922q-157 0 -237 -148q-66 -121 -66 -311q0 -174 66 -287q78 -135 225 -135q143 0 221 166q62 131 62 289q0 168 -56 280q-71 146 -215 146zM500 -309q-37 0 -65.5 28.5t-28.5 65.5t28.5 65.5t65.5 28.5q39 0 66.5 -27.5t27.5 -66.5
q0 -37 -28.5 -65.5t-65.5 -28.5z" />
    <glyph glyph-name=".notdef.084" unicode="&#x1ee4;" horiz-adv-x="1376" 
d="M250 1397v-787q0 -284 94 -407q105 -137 361 -137q231 0 342 157q100 142 100 408v766q33 -8 57 -8l58 8v-815q0 -297 -161 -456t-437 -159q-152 0 -258.5 36t-190.5 113t-119 212q-26 102 -26 250v819q36 -4 49.5 -6t40.5 -2q35 0 56.5 4t33.5 4zM661 -309
q-37 0 -65.5 28.5t-28.5 65.5t28.5 65.5t65.5 28.5q39 0 66.5 -27.5t27.5 -66.5q0 -37 -28.5 -65.5t-65.5 -28.5z" />
    <glyph glyph-name=".notdef.018" unicode="&#x1ee5;" 
d="M909 975v-983l-82 8q-22 0 -34.5 -1t-47.5 -7v180q-102 -197 -327 -197q-170 0 -253 95.5t-83 302.5v602q31 -4 43 -6t39 -2l82 8v-553q0 -172 55 -258t191 -86q141 0 204 110q49 84 49 222v565q31 -4 43.5 -6t38.5 -2zM500 -309q-37 0 -65.5 28.5t-28.5 65.5t28.5 65.5
t65.5 28.5q39 0 66.5 -27.5t27.5 -66.5q0 -37 -28.5 -65.5t-65.5 -28.5z" />
    <glyph glyph-name=".notdef.086" unicode="&#x1ee6;" horiz-adv-x="1376" 
d="M250 1397v-787q0 -284 94 -407q105 -137 361 -137q231 0 342 157q100 142 100 408v766q33 -8 57 -8l58 8v-815q0 -297 -161 -456t-437 -159q-152 0 -258.5 36t-190.5 113t-119 212q-26 102 -26 250v819q36 -4 49.5 -6t40.5 -2q35 0 56.5 4t33.5 4zM498 1859l20 55
q7 16 25 31q16 20 65.5 38.5t98.5 18.5q37 0 51 -3t54 -16.5t59 -37.5q49 -50 49 -119q0 -25 -15.5 -57.5t-62.5 -81.5l-51 -39l-39 -27q-17 -16 -20 -26.5t-5 -16.5l-4 -72h-53v62q0 18 5 43.5t21 50.5l72 94l19 39q10 31 14 64q0 73 -98 86q-54 -9 -74 -37q12 -25 16 -49
q0 -31 -17 -52.5t-52 -25.5q-31 0 -54.5 23.5t-23.5 54.5z" />
    <glyph glyph-name=".notdef.020" unicode="&#x1ee7;" 
d="M909 975v-983l-82 8q-22 0 -34.5 -1t-47.5 -7v180q-102 -197 -327 -197q-170 0 -253 95.5t-83 302.5v602q31 -4 43 -6t39 -2l82 8v-553q0 -172 55 -258t191 -86q141 0 204 110q49 84 49 222v565q31 -4 43.5 -6t38.5 -2zM300 1409l20 55q7 16 25 31q16 20 65.5 38.5
t98.5 18.5q37 0 51 -3t54 -16.5t59 -37.5q49 -50 49 -119q0 -25 -15.5 -57.5t-62.5 -81.5l-51 -39l-39 -27q-17 -16 -20 -26.5t-5 -16.5l-4 -72h-53v62q0 18 5 43.5t21 50.5l72 94l19 39q10 31 14 64q0 73 -98 86q-54 -9 -74 -37q12 -25 16 -49q0 -31 -17 -52.5t-52 -25.5
q-31 0 -54.5 23.5t-23.5 54.5z" />
    <glyph glyph-name=".notdef.081" unicode="&#x1ee8;" horiz-adv-x="1376" 
d="M1262 1352q16 0 41.5 1t42.5 25q6 11 14 23t8 29q0 22 -18 47q-7 10 -37.5 12t-32.5 8v123l57 -8l90 4h50l-4 -29v-106q0 -47 -7.5 -65.5t-46.5 -63.5q-26 -31 -59 -42.5t-98 -11.5v-716q0 -297 -161 -456t-437 -159q-152 0 -258.5 36t-190.5 113t-119 212
q-26 102 -26 250v819q36 -4 49.5 -6t40.5 -2q35 0 56.5 4t33.5 4v-787q0 -284 94 -407q105 -137 361 -137q231 0 342 157q100 142 100 408v766q33 -8 57 -8l58 8v-45zM857 1700l-323 -201h-70l258 258l49 49q31 21 62 41h16q47 0 62 -45l4 -33q0 -16 -8 -24
q-4 -12 -22.5 -25.5t-27.5 -19.5z" />
    <glyph glyph-name=".notdef.015" unicode="&#x1ee9;" 
d="M909 930q39 10 54.5 31.5t15.5 54.5q0 41 -16 57q-7 10 -37.5 12t-32.5 9v123l61 -9h136l-5 -32v-78q0 -54 -10 -93.5t-43 -78.5q-24 -29 -52 -41.5t-71 -16.5v-876l-82 8q-22 0 -34.5 -1t-47.5 -7v180q-102 -197 -327 -197q-170 0 -253 95.5t-83 302.5v602q31 -4 43 -6
t39 -2l82 8v-553q0 -172 55 -258t191 -86q141 0 204 110q49 84 49 222v565q31 -4 43.5 -6t38.5 -2l82 8v-45zM715 1290l-324 -200h-69l258 258l49 49q31 20 61 41h17q47 0 61 -45l4 -33q0 -17 -8 -25q-4 -12 -22.5 -25.5t-26.5 -19.5z" />
    <glyph glyph-name=".notdef.082" unicode="&#x1eea;" horiz-adv-x="1376" 
d="M1262 1352q16 0 41.5 1t42.5 25q6 11 14 23t8 29q0 22 -18 47q-7 10 -37.5 12t-32.5 8v123l57 -8l90 4h50l-4 -29v-106q0 -47 -7.5 -65.5t-46.5 -63.5q-26 -31 -59 -42.5t-98 -11.5v-716q0 -297 -161 -456t-437 -159q-152 0 -258.5 36t-190.5 113t-119 212
q-26 102 -26 250v819q36 -4 49.5 -6t40.5 -2q35 0 56.5 4t33.5 4v-787q0 -284 94 -407q105 -137 361 -137q231 0 342 157q100 142 100 408v766q33 -8 57 -8l58 8v-45zM860 1499h-69l-324 201q-25 22 -49 45q-4 8 -4 33v24q14 41 69 41h17l24 -12q21 -14 43.5 -38t34.5 -36z
" />
    <glyph glyph-name=".notdef.016" unicode="&#x1eeb;" 
d="M909 930q39 10 54.5 31.5t15.5 54.5q0 41 -16 57q-7 10 -37.5 12t-32.5 9v123l61 -9h136l-5 -32v-78q0 -54 -10 -93.5t-43 -78.5q-24 -29 -52 -41.5t-71 -16.5v-876l-82 8q-22 0 -34.5 -1t-47.5 -7v180q-102 -197 -327 -197q-170 0 -253 95.5t-83 302.5v602q31 -4 43 -6
t39 -2l82 8v-553q0 -172 55 -258t191 -86q141 0 204 110q49 84 49 222v565q31 -4 43.5 -6t38.5 -2l82 8v-45zM699 1090h-69l-324 200q-24 23 -49 45q-4 8 -4 33v25q14 41 70 41h16q12 -7 25 -13q20 -14 42.5 -37.5t34.5 -35.5z" />
    <glyph glyph-name=".notdef.080" unicode="&#x1eec;" horiz-adv-x="1376" 
d="M1262 1352q16 0 41.5 1t42.5 25q6 11 14 23t8 29q0 22 -18 47q-7 10 -37.5 12t-32.5 8v123l57 -8l90 4h50l-4 -29v-106q0 -47 -7.5 -65.5t-46.5 -63.5q-26 -31 -59 -42.5t-98 -11.5v-716q0 -297 -161 -456t-437 -159q-152 0 -258.5 36t-190.5 113t-119 212
q-26 102 -26 250v819q36 -4 49.5 -6t40.5 -2q35 0 56.5 4t33.5 4v-787q0 -284 94 -407q105 -137 361 -137q231 0 342 157q100 142 100 408v766q33 -8 57 -8l58 8v-45zM498 1859l20 55q7 16 25 31q16 20 65.5 38.5t98.5 18.5q37 0 51 -3t54 -16.5t59 -37.5q49 -50 49 -119
q0 -25 -15.5 -57.5t-62.5 -81.5l-51 -39l-39 -27q-17 -16 -20 -26.5t-5 -16.5l-4 -72h-53v62q0 18 5 43.5t21 50.5l72 94l19 39q10 31 14 64q0 73 -98 86q-54 -9 -74 -37q12 -25 16 -49q0 -31 -17 -52.5t-52 -25.5q-31 0 -54.5 23.5t-23.5 54.5z" />
    <glyph glyph-name=".notdef.014" unicode="&#x1eed;" 
d="M909 930q39 10 54.5 31.5t15.5 54.5q0 41 -16 57q-7 10 -37.5 12t-32.5 9v123l61 -9h136l-5 -32v-78q0 -54 -10 -93.5t-43 -78.5q-24 -29 -52 -41.5t-71 -16.5v-876l-82 8q-22 0 -34.5 -1t-47.5 -7v180q-102 -197 -327 -197q-170 0 -253 95.5t-83 302.5v602q31 -4 43 -6
t39 -2l82 8v-553q0 -172 55 -258t191 -86q141 0 204 110q49 84 49 222v565q31 -4 43.5 -6t38.5 -2l82 8v-45zM300 1409l20 55q7 16 25 31q16 20 65.5 38.5t98.5 18.5q37 0 51 -3t54 -16.5t59 -37.5q49 -50 49 -119q0 -25 -15.5 -57.5t-62.5 -81.5l-51 -39l-39 -27
q-17 -16 -20 -26.5t-5 -16.5l-4 -72h-53v62q0 18 5 43.5t21 50.5l72 94l19 39q10 31 14 64q0 73 -98 86q-54 -9 -74 -37q12 -25 16 -49q0 -31 -17 -52.5t-52 -25.5q-31 0 -54.5 23.5t-23.5 54.5z" />
    <glyph glyph-name=".notdef.079" unicode="&#x1eee;" horiz-adv-x="1376" 
d="M1262 1352q16 0 41.5 1t42.5 25q6 11 14 23t8 29q0 22 -18 47q-7 10 -37.5 12t-32.5 8v123l57 -8l90 4h50l-4 -29v-106q0 -47 -7.5 -65.5t-46.5 -63.5q-26 -31 -59 -42.5t-98 -11.5v-716q0 -297 -161 -456t-437 -159q-152 0 -258.5 36t-190.5 113t-119 212
q-26 102 -26 250v819q36 -4 49.5 -6t40.5 -2q35 0 56.5 4t33.5 4v-787q0 -284 94 -407q105 -137 361 -137q231 0 342 157q100 142 100 408v766q33 -8 57 -8l58 8v-45zM450 1565h-49q17 84 69 140t120 56q32 0 48.5 -6t28 -11t58.5 -32l65 -33q17 -4 27 -7t22 -5
q19 0 37.5 10.5t27.5 23.5t18.5 33.5t15.5 39.5h53q-21 -88 -66 -144q-53 -65 -127 -65q-45 0 -84 18q-30 19 -47 27q-26 14 -57 29.5t-57 15.5l-41 -8q-23 -9 -36 -28.5t-26 -53.5z" />
    <glyph glyph-name=".notdef.013" unicode="&#x1eef;" 
d="M909 930q39 10 54.5 31.5t15.5 54.5q0 41 -16 57q-7 10 -37.5 12t-32.5 9v123l61 -9h136l-5 -32v-78q0 -54 -10 -93.5t-43 -78.5q-24 -29 -52 -41.5t-71 -16.5v-876l-82 8q-22 0 -34.5 -1t-47.5 -7v180q-102 -197 -327 -197q-170 0 -253 95.5t-83 302.5v602q31 -4 43 -6
t39 -2l82 8v-553q0 -172 55 -258t191 -86q141 0 204 110q49 84 49 222v565q31 -4 43.5 -6t38.5 -2l82 8v-45zM287 1143h-53q16 82 69.5 139t123.5 57q32 0 45 -4l86 -45q34 -20 69 -33q8 -2 23.5 -7t21.5 -5q19 0 37.5 10.5t28.5 25.5t20.5 36.5t16.5 34.5h49
q-16 -86 -64 -144q-53 -65 -129 -65q-30 0 -43.5 4t-87.5 41q-39 20 -57 29q-35 16 -57 16l-41 -8q-21 -8 -36.5 -32t-21.5 -50z" />
    <glyph glyph-name=".notdef.078" unicode="&#x1ef0;" horiz-adv-x="1376" 
d="M1262 1352q16 0 41.5 1t42.5 25q6 11 14 23t8 29q0 22 -18 47q-7 10 -37.5 12t-32.5 8v123l57 -8l90 4h50l-4 -29v-106q0 -47 -7.5 -65.5t-46.5 -63.5q-26 -31 -59 -42.5t-98 -11.5v-716q0 -297 -161 -456t-437 -159q-152 0 -258.5 36t-190.5 113t-119 212
q-26 102 -26 250v819q36 -4 49.5 -6t40.5 -2q35 0 56.5 4t33.5 4v-787q0 -284 94 -407q105 -137 361 -137q231 0 342 157q100 142 100 408v766q33 -8 57 -8l58 8v-45zM661 -309q-37 0 -65.5 28.5t-28.5 65.5t28.5 65.5t65.5 28.5q39 0 66.5 -27.5t27.5 -66.5
q0 -37 -28.5 -65.5t-65.5 -28.5z" />
    <glyph glyph-name=".notdef.012" unicode="&#x1ef1;" 
d="M909 930q39 10 54.5 31.5t15.5 54.5q0 41 -16 57q-7 10 -37.5 12t-32.5 9v123l61 -9h136l-5 -32v-78q0 -54 -10 -93.5t-43 -78.5q-24 -29 -52 -41.5t-71 -16.5v-876l-82 8q-22 0 -34.5 -1t-47.5 -7v180q-102 -197 -327 -197q-170 0 -253 95.5t-83 302.5v602q31 -4 43 -6
t39 -2l82 8v-553q0 -172 55 -258t191 -86q141 0 204 110q49 84 49 222v565q31 -4 43.5 -6t38.5 -2l82 8v-45zM500 -309q-37 0 -65.5 28.5t-28.5 65.5t28.5 65.5t65.5 28.5q39 0 66.5 -27.5t27.5 -66.5q0 -37 -28.5 -65.5t-65.5 -28.5z" />
    <glyph glyph-name=".notdef.071" unicode="&#x1ef2;" horiz-adv-x="1376" 
d="M786 623v-631q-24 4 -44.5 6t-45.5 2q-24 0 -49.5 -3t-40.5 -5v594l-504 811q50 -4 72.5 -6t42.5 -2q27 0 60.5 3t54.5 5q57 -117 196.5 -361.5t192.5 -326.5q47 53 199 331q100 183 190 357q31 -4 43 -6t39 -2q18 0 40.5 3l37.5 5q-80 -105 -144 -205l-225 -365
q-31 -43 -63.5 -102t-51.5 -102zM860 1499h-69l-324 201q-25 22 -49 45q-4 8 -4 33v24q14 41 69 41h17l24 -12q21 -14 43.5 -38t34.5 -36z" />
    <glyph glyph-name=".notdef.005" unicode="&#x1ef3;" 
d="M467 4l-414 971q25 -4 47.5 -6t51.5 -2q22 0 50.5 3l47.5 5q61 -193 131 -370t172 -392q65 135 156.5 363.5t150.5 398.5q17 -4 33 -6t37 -2q16 0 65 8q-211 -469 -233 -518q-164 -361 -221 -494q-125 -285 -209 -495q-19 4 -34 6t-36 2q-29 0 -43 -2q-18 -6 -26 -6z
M699 1090h-69l-324 200q-24 23 -49 45q-4 8 -4 33v25q14 41 70 41h16q12 -7 25 -13q20 -14 42.5 -37.5t34.5 -35.5z" />
    <glyph glyph-name=".notdef.067" unicode="&#x1ef4;" horiz-adv-x="1376" 
d="M786 623v-631q-24 4 -44.5 6t-45.5 2q-24 0 -49.5 -3t-40.5 -5v594l-504 811q50 -4 72.5 -6t42.5 -2q27 0 60.5 3t54.5 5q57 -117 196.5 -361.5t192.5 -326.5q47 53 199 331q100 183 190 357q31 -4 43 -6t39 -2q18 0 40.5 3l37.5 5q-80 -105 -144 -205l-225 -365
q-31 -43 -63.5 -102t-51.5 -102zM697 -309q-37 0 -65.5 28.5t-28.5 65.5t28.5 65.5t65.5 28.5q39 0 66.5 -27.5t27.5 -66.5q0 -37 -28.5 -65.5t-65.5 -28.5z" />
    <glyph glyph-name=".notdef.001" unicode="&#x1ef5;" 
d="M467 4l-414 971q25 -4 47.5 -6t51.5 -2q22 0 50.5 3l47.5 5q61 -193 131 -370t172 -392q65 135 156.5 363.5t150.5 398.5q17 -4 33 -6t37 -2q16 0 65 8q-211 -469 -233 -518q-164 -361 -221 -494q-125 -285 -209 -495q-19 4 -34 6t-36 2q-29 0 -43 -2q-18 -6 -26 -6z
M661 -309q-37 0 -65.5 28.5t-28.5 65.5t28.5 65.5t65.5 28.5q39 0 66.5 -27.5t27.5 -66.5q0 -37 -28.5 -65.5t-65.5 -28.5z" />
    <glyph glyph-name=".notdef.069" unicode="&#x1ef6;" horiz-adv-x="1376" 
d="M786 623v-631q-24 4 -44.5 6t-45.5 2q-24 0 -49.5 -3t-40.5 -5v594l-504 811q50 -4 72.5 -6t42.5 -2q27 0 60.5 3t54.5 5q57 -117 196.5 -361.5t192.5 -326.5q47 53 199 331q100 183 190 357q31 -4 43 -6t39 -2q18 0 40.5 3l37.5 5q-80 -105 -144 -205l-225 -365
q-31 -43 -63.5 -102t-51.5 -102zM498 1859l20 55q7 16 25 31q16 20 65.5 38.5t98.5 18.5q37 0 51 -3t54 -16.5t59 -37.5q49 -50 49 -119q0 -25 -15.5 -57.5t-62.5 -81.5l-51 -39l-39 -27q-17 -16 -20 -26.5t-5 -16.5l-4 -72h-53v62q0 18 5 43.5t21 50.5l72 94l19 39
q10 31 14 64q0 73 -98 86q-54 -9 -74 -37q12 -25 16 -49q0 -31 -17 -52.5t-52 -25.5q-31 0 -54.5 23.5t-23.5 54.5z" />
    <glyph glyph-name=".notdef.003" unicode="&#x1ef7;" 
d="M467 4l-414 971q25 -4 47.5 -6t51.5 -2q22 0 50.5 3l47.5 5q61 -193 131 -370t172 -392q65 135 156.5 363.5t150.5 398.5q17 -4 33 -6t37 -2q16 0 65 8q-211 -469 -233 -518q-164 -361 -221 -494q-125 -285 -209 -495q-19 4 -34 6t-36 2q-29 0 -43 -2q-18 -6 -26 -6z
M344 1409l20 55q7 16 25 31q16 20 65.5 38.5t98.5 18.5q37 0 51 -3t54 -16.5t59 -37.5q49 -50 49 -119q0 -25 -15.5 -57.5t-62.5 -81.5l-51 -39l-39 -27q-17 -16 -20 -26.5t-5 -16.5l-4 -72h-53v62q0 18 5 43.5t21 50.5l72 94l19 39q10 31 14 64q0 73 -98 86q-54 -9 -74 -37
q12 -25 16 -49q0 -31 -17 -52.5t-52 -25.5q-31 0 -54.5 23.5t-23.5 54.5z" />
    <glyph glyph-name=".notdef.068" unicode="&#x1ef8;" horiz-adv-x="1376" 
d="M786 623v-631q-24 4 -44.5 6t-45.5 2q-24 0 -49.5 -3t-40.5 -5v594l-504 811q50 -4 72.5 -6t42.5 -2q27 0 60.5 3t54.5 5q57 -117 196.5 -361.5t192.5 -326.5q47 53 199 331q100 183 190 357q31 -4 43 -6t39 -2q18 0 40.5 3l37.5 5q-80 -105 -144 -205l-225 -365
q-31 -43 -63.5 -102t-51.5 -102zM450 1565h-49q17 84 69 140t120 56q32 0 48.5 -6t28 -11t58.5 -32l65 -33q17 -4 27 -7t22 -5q19 0 37.5 10.5t27.5 23.5t18.5 33.5t15.5 39.5h53q-21 -88 -66 -144q-53 -65 -127 -65q-45 0 -84 18q-30 19 -47 27q-26 14 -57 29.5t-57 15.5
l-41 -8q-23 -9 -36 -28.5t-26 -53.5z" />
    <glyph glyph-name=".notdef.002" unicode="&#x1ef9;" 
d="M467 4l-414 971q25 -4 47.5 -6t51.5 -2q22 0 50.5 3l47.5 5q61 -193 131 -370t172 -392q65 135 156.5 363.5t150.5 398.5q17 -4 33 -6t37 -2q16 0 65 8q-211 -469 -233 -518q-164 -361 -221 -494q-125 -285 -209 -495q-19 4 -34 6t-36 2q-29 0 -43 -2q-18 -6 -26 -6z
M287 1143h-53q16 82 69.5 139t123.5 57q32 0 45 -4l86 -45q34 -20 69 -33q8 -2 23.5 -7t21.5 -5q19 0 37.5 10.5t28.5 25.5t20.5 36.5t16.5 34.5h49q-16 -86 -64 -144q-53 -65 -129 -65q-30 0 -43.5 4t-87.5 41q-39 20 -57 29q-35 16 -57 16l-41 -8q-21 -8 -36.5 -32
t-21.5 -50z" />
    <glyph glyph-name="quoteleft" unicode="&#x2018;" horiz-adv-x="590" 
d="M463 1413l-144 -455q-14 -51 -28 -75q-27 -43 -66 -43q-30 0 -56 21.5t-26 56.5q0 26 15 55q4 10 30 51l242 401z" />
    <glyph glyph-name="quoteright" unicode="&#x2019;" horiz-adv-x="590" 
d="M106 856l144 455q20 59 31 73q26 41 63 41t61.5 -19.5t24.5 -53.5q0 -25 -7 -43.5t-38 -67.5l-242 -401z" />
    <glyph glyph-name="quotedblleft" unicode="&#x201c;" horiz-adv-x="918" 
d="M803 1413l-144 -455q-14 -51 -28 -75q-27 -43 -66 -43q-30 0 -56 21.5t-26 56.5q0 26 15 55q4 10 30 51l242 401zM455 1413l-144 -455q-14 -51 -28 -75q-27 -43 -66 -43q-31 0 -56.5 21.5t-25.5 56.5q0 26 15 55q4 10 30 51l242 401z" />
    <glyph glyph-name="quotedblright" unicode="&#x201d;" horiz-adv-x="918" 
d="M106 856l144 455q20 59 31 73q26 41 63 41t61.5 -19.5t24.5 -53.5q0 -25 -7 -43.5t-38 -67.5l-242 -401zM455 856l143 455q20 59 31 73q26 41 63 41t61.5 -19.5t24.5 -53.5q0 -25 -7 -43.5t-38 -67.5l-241 -401z" />
    <glyph glyph-name="ellipsis" unicode="&#x2026;" horiz-adv-x="2052" 
d="M221 102q0 50 37 86.5t86 36.5t86 -36.5t37 -86.5q0 -51 -36 -89t-87 -38q-49 0 -86 37t-37 90zM901 102q0 50 39 86.5t88 36.5t84 -36.5t35 -86.5q0 -53 -35 -90t-84 -37q-53 0 -90 37t-37 90zM1585 102q0 50 37 86.5t86 36.5t86 -36.5t37 -86.5q0 -51 -36 -89t-87 -38
q-49 0 -86 37t-37 90z" />
    <glyph glyph-name="trademark" unicode="&#x2122;" horiz-adv-x="1966" 
d="M1720 1397h25q31 -279 49 -443q27 -227 49 -389l-57 4l-57 -4q-13 135 -23 273q-20 219 -39 354q-119 -213 -184 -338q-84 -160 -135 -276h-13l-65 139q-47 98 -121 237q-64 119 -125 238q-23 -180 -31 -264q-30 -262 -30 -363l-41 4l-45 -4q4 25 47 316q63 426 71 516
h29q117 -230 205 -391q71 -134 139 -248q29 51 217 395q78 141 135 244zM475 1339v-774l-53 4l-53 -4v774q-97 0 -135.5 -3t-131.5 -13v74h627v-74q-53 6 -130 11t-124 5z" />
    <glyph glyph-name="ugrave" horiz-adv-x="582" 
 />
    <glyph glyph-name="uacute" horiz-adv-x="580" 
 />
    <glyph glyph-name="yacute" horiz-adv-x="629" 
 />
  </font>
</defs>
</svg>
